<svg xmlns="http://www.w3.org/2000/svg" xmlns:xlink="http://www.w3.org/1999/xlink" width="500" zoomAndPan="magnify" viewBox="0 0 375 374.999991" height="500" preserveAspectRatio="xMidYMid meet" version="1.0"><defs><g/><clipPath id="026762f221"><path d="M 5.671875 61.640625 L 316 61.640625 L 316 293 L 5.671875 293 Z M 5.671875 61.640625 " clip-rule="nonzero"/></clipPath><clipPath id="fc8c0b0d0b"><path d="M 5.671875 190.480469 L 316 190.480469 L 316 267.785156 L 5.671875 267.785156 Z M 5.671875 190.480469 " clip-rule="nonzero"/></clipPath><clipPath id="9fff5502df"><path d="M 117.1875 244.039062 L 181.789062 244.039062 L 181.789062 314.964844 L 117.1875 314.964844 Z M 117.1875 244.039062 " clip-rule="nonzero"/></clipPath></defs><g fill="#514f52" fill-opacity="1"><g transform="translate(73.005599, 355.138646)"><g><path d="M 28.984375 2.375 C 27.972656 3.03125 26.769531 3.582031 25.375 4.03125 C 23.976562 4.476562 22.316406 4.816406 20.390625 5.046875 C 20.222656 3.316406 19.988281 1.515625 19.6875 -0.359375 C 19.382812 -2.242188 19.003906 -4.164062 18.546875 -6.125 C 16.703125 -6.09375 15.046875 -6.035156 13.578125 -5.953125 C 12.117188 -5.867188 10.738281 -5.738281 9.4375 -5.5625 C 8.976562 -4.269531 8.503906 -3.035156 8.015625 -1.859375 C 7.523438 -0.679688 7.039062 0.394531 6.5625 1.375 C 5.144531 1.144531 3.8125 0.691406 2.5625 0.015625 C 1.3125 -0.648438 0.328125 -1.445312 -0.390625 -2.375 C 1.828125 -6.476562 3.753906 -10.625 5.390625 -14.8125 C 7.023438 -19 8.734375 -24.269531 10.515625 -30.625 C 11.929688 -30.625 13.207031 -30.554688 14.34375 -30.421875 C 15.476562 -30.296875 16.734375 -30.0625 18.109375 -29.71875 C 20.609375 -25.75 22.78125 -21.03125 24.625 -15.5625 C 26.46875 -10.101562 27.921875 -4.125 28.984375 2.375 Z M 14.109375 -20.75 C 13.734375 -19.332031 13.3125 -17.832031 12.84375 -16.25 C 12.382812 -14.675781 11.898438 -13.066406 11.390625 -11.421875 C 12.359375 -11.566406 13.3125 -11.679688 14.25 -11.765625 C 15.1875 -11.859375 16.128906 -11.921875 17.078125 -11.953125 C 16.585938 -13.554688 16.097656 -15.09375 15.609375 -16.5625 C 15.117188 -18.03125 14.617188 -19.425781 14.109375 -20.75 Z M 14.109375 -20.75 "/></g></g></g><g fill="#514f52" fill-opacity="1"><g transform="translate(106.810514, 355.138646)"><g><path d="M 26.859375 -11.515625 C 26.859375 -8.035156 25.53125 -5.101562 22.875 -2.71875 C 20.21875 -0.332031 16.960938 0.859375 13.109375 0.859375 C 11.703125 0.859375 10.269531 0.640625 8.8125 0.203125 C 7.363281 -0.222656 5.9375 -0.863281 4.53125 -1.71875 C 4.15625 -5.03125 3.875 -8.453125 3.6875 -11.984375 C 3.5 -15.523438 3.40625 -19.265625 3.40625 -23.203125 C 3.40625 -24.921875 3.410156 -26.210938 3.421875 -27.078125 C 3.441406 -27.941406 3.46875 -28.75 3.5 -29.5 C 5.132812 -30.300781 6.84375 -30.914062 8.625 -31.34375 C 10.40625 -31.78125 12.171875 -32 13.921875 -32 C 17.429688 -32 20.101562 -31.382812 21.9375 -30.15625 C 23.78125 -28.9375 24.703125 -27.179688 24.703125 -24.890625 C 24.703125 -23.472656 24.394531 -22.195312 23.78125 -21.0625 C 23.164062 -19.925781 22.253906 -18.941406 21.046875 -18.109375 C 22.890625 -17.566406 24.316406 -16.710938 25.328125 -15.546875 C 26.347656 -14.378906 26.859375 -13.035156 26.859375 -11.515625 Z M 16.296875 -23.671875 C 16.296875 -24.828125 15.976562 -25.691406 15.34375 -26.265625 C 14.71875 -26.835938 13.785156 -27.125 12.546875 -27.125 L 12.421875 -27.125 C 12.273438 -25.507812 12.148438 -23.976562 12.046875 -22.53125 C 11.953125 -21.082031 11.875 -19.695312 11.8125 -18.375 C 13.28125 -18.6875 14.394531 -19.300781 15.15625 -20.21875 C 15.914062 -21.144531 16.296875 -22.296875 16.296875 -23.671875 Z M 11.6875 -4.921875 C 12.09375 -4.710938 12.46875 -4.554688 12.8125 -4.453125 C 13.15625 -4.359375 13.5 -4.3125 13.84375 -4.3125 C 14.988281 -4.3125 15.992188 -4.867188 16.859375 -5.984375 C 17.722656 -7.109375 18.15625 -8.378906 18.15625 -9.796875 C 18.15625 -10.972656 17.816406 -11.867188 17.140625 -12.484375 C 16.460938 -13.097656 15.476562 -13.40625 14.1875 -13.40625 C 13.8125 -13.40625 13.421875 -13.363281 13.015625 -13.28125 C 12.617188 -13.195312 12.175781 -13.050781 11.6875 -12.84375 C 11.65625 -12.445312 11.640625 -12.023438 11.640625 -11.578125 C 11.640625 -11.128906 11.640625 -10.445312 11.640625 -9.53125 C 11.640625 -8.238281 11.640625 -7.273438 11.640625 -6.640625 C 11.640625 -6.003906 11.65625 -5.429688 11.6875 -4.921875 Z M 11.6875 -4.921875 "/></g></g></g><g fill="#514f52" fill-opacity="1"><g transform="translate(139.321971, 355.138646)"><g><path d="M 15.875 -31.609375 C 19.320312 -31.609375 21.984375 -30.476562 23.859375 -28.21875 C 25.742188 -25.96875 26.6875 -22.769531 26.6875 -18.625 C 26.6875 -16.382812 26.382812 -14.109375 25.78125 -11.796875 C 25.1875 -9.484375 24.351562 -7.4375 23.28125 -5.65625 C 21.957031 -3.519531 20.347656 -1.898438 18.453125 -0.796875 C 16.554688 0.304688 14.414062 0.859375 12.03125 0.859375 C 8.582031 0.859375 5.894531 -0.46875 3.96875 -3.125 C 2.039062 -5.78125 1.078125 -9.378906 1.078125 -13.921875 C 1.078125 -19.128906 2.441406 -23.378906 5.171875 -26.671875 C 7.898438 -29.960938 11.46875 -31.609375 15.875 -31.609375 Z M 13.84375 -4.75 C 15.132812 -4.75 16.097656 -5.640625 16.734375 -7.421875 C 17.367188 -9.203125 17.6875 -12.148438 17.6875 -16.265625 C 17.6875 -19.796875 17.40625 -22.300781 16.84375 -23.78125 C 16.28125 -25.257812 15.335938 -26 14.015625 -26 C 12.691406 -26 11.675781 -25.050781 10.96875 -23.15625 C 10.269531 -21.257812 9.921875 -18.585938 9.921875 -15.140625 C 9.921875 -11.859375 10.257812 -9.304688 10.9375 -7.484375 C 11.613281 -5.660156 12.582031 -4.75 13.84375 -4.75 Z M 13.84375 -4.75 "/></g></g></g><g fill="#514f52" fill-opacity="1"><g transform="translate(172.092127, 355.138646)"><g><path d="M 23.078125 -30.703125 C 23.703125 -27.710938 24.132812 -25.238281 24.375 -23.28125 C 24.625 -21.332031 24.75 -19.492188 24.75 -17.765625 C 24.75 -10.804688 23.648438 -5.53125 21.453125 -1.9375 C 19.253906 1.65625 16 3.453125 11.6875 3.453125 C 8.351562 3.453125 5.820312 2.175781 4.09375 -0.375 C 2.375 -2.9375 1.515625 -6.617188 1.515625 -11.421875 C 1.515625 -14.390625 1.769531 -17.453125 2.28125 -20.609375 C 2.800781 -23.773438 3.332031 -25.847656 3.875 -26.828125 C 4.425781 -26.972656 5.097656 -27.09375 5.890625 -27.1875 C 6.679688 -27.289062 7.445312 -27.34375 8.1875 -27.34375 C 9.082031 -27.34375 9.851562 -27.285156 10.5 -27.171875 C 11.144531 -27.054688 11.640625 -26.894531 11.984375 -26.6875 C 11.585938 -24.363281 11.285156 -22.046875 11.078125 -19.734375 C 10.878906 -17.421875 10.78125 -15.226562 10.78125 -13.15625 C 10.78125 -9.707031 10.972656 -7.007812 11.359375 -5.0625 C 11.753906 -3.125 12.3125 -2.15625 13.03125 -2.15625 C 13.914062 -2.15625 14.585938 -3.269531 15.046875 -5.5 C 15.503906 -7.726562 15.734375 -10.925781 15.734375 -15.09375 C 15.734375 -17.164062 15.585938 -19.363281 15.296875 -21.6875 C 15.015625 -24.019531 14.570312 -26.476562 13.96875 -29.0625 C 15.09375 -29.550781 16.53125 -29.945312 18.28125 -30.25 C 20.039062 -30.550781 21.640625 -30.703125 23.078125 -30.703125 Z M 23.078125 -30.703125 "/></g></g></g><g fill="#514f52" fill-opacity="1"><g transform="translate(202.922078, 355.138646)"><g><path d="M 17.25 -1.890625 C 15.988281 -1.578125 14.742188 -1.347656 13.515625 -1.203125 C 12.296875 -1.054688 10.925781 -0.984375 9.40625 -0.984375 C 9.40625 -5.015625 9.289062 -9.363281 9.0625 -14.03125 C 8.832031 -18.707031 8.515625 -22.742188 8.109375 -26.140625 C 7.734375 -26.109375 7.015625 -26.039062 5.953125 -25.9375 C 4.890625 -25.832031 3.46875 -25.695312 1.6875 -25.53125 C 1.3125 -26.539062 1.019531 -27.578125 0.8125 -28.640625 C 0.613281 -29.703125 0.515625 -30.734375 0.515625 -31.734375 C 4.453125 -32.628906 8.207031 -33.269531 11.78125 -33.65625 C 15.363281 -34.039062 19.414062 -34.234375 23.9375 -34.234375 C 24.082031 -33.753906 24.1875 -33.203125 24.25 -32.578125 C 24.320312 -31.960938 24.359375 -31.28125 24.359375 -30.53125 C 24.359375 -30.007812 24.320312 -29.445312 24.25 -28.84375 C 24.1875 -28.238281 24.066406 -27.578125 23.890625 -26.859375 C 22.796875 -26.859375 21.726562 -26.851562 20.6875 -26.84375 C 19.65625 -26.832031 18.640625 -26.796875 17.640625 -26.734375 C 17.753906 -24.953125 17.835938 -23.097656 17.890625 -21.171875 C 17.953125 -19.242188 17.984375 -17.257812 17.984375 -15.21875 C 17.984375 -13.320312 17.925781 -11.273438 17.8125 -9.078125 C 17.695312 -6.878906 17.507812 -4.484375 17.25 -1.890625 Z M 17.25 -1.890625 "/></g></g></g><g fill="#514f52" fill-opacity="1"><g transform="translate(232.760369, 355.138646)"><g/></g></g><g fill="#514f52" fill-opacity="1"><g transform="translate(247.033929, 355.138646)"><g><path d="M 23.078125 -30.703125 C 23.703125 -27.710938 24.132812 -25.238281 24.375 -23.28125 C 24.625 -21.332031 24.75 -19.492188 24.75 -17.765625 C 24.75 -10.804688 23.648438 -5.53125 21.453125 -1.9375 C 19.253906 1.65625 16 3.453125 11.6875 3.453125 C 8.351562 3.453125 5.820312 2.175781 4.09375 -0.375 C 2.375 -2.9375 1.515625 -6.617188 1.515625 -11.421875 C 1.515625 -14.390625 1.769531 -17.453125 2.28125 -20.609375 C 2.800781 -23.773438 3.332031 -25.847656 3.875 -26.828125 C 4.425781 -26.972656 5.097656 -27.09375 5.890625 -27.1875 C 6.679688 -27.289062 7.445312 -27.34375 8.1875 -27.34375 C 9.082031 -27.34375 9.851562 -27.285156 10.5 -27.171875 C 11.144531 -27.054688 11.640625 -26.894531 11.984375 -26.6875 C 11.585938 -24.363281 11.285156 -22.046875 11.078125 -19.734375 C 10.878906 -17.421875 10.78125 -15.226562 10.78125 -13.15625 C 10.78125 -9.707031 10.972656 -7.007812 11.359375 -5.0625 C 11.753906 -3.125 12.3125 -2.15625 13.03125 -2.15625 C 13.914062 -2.15625 14.585938 -3.269531 15.046875 -5.5 C 15.503906 -7.726562 15.734375 -10.925781 15.734375 -15.09375 C 15.734375 -17.164062 15.585938 -19.363281 15.296875 -21.6875 C 15.015625 -24.019531 14.570312 -26.476562 13.96875 -29.0625 C 15.09375 -29.550781 16.53125 -29.945312 18.28125 -30.25 C 20.039062 -30.550781 21.640625 -30.703125 23.078125 -30.703125 Z M 23.078125 -30.703125 "/></g></g></g><g fill="#514f52" fill-opacity="1"><g transform="translate(277.863881, 355.138646)"><g><path d="M 20.875 -14.75 C 21.53125 -13.832031 22.015625 -12.863281 22.328125 -11.84375 C 22.648438 -10.820312 22.8125 -9.71875 22.8125 -8.53125 C 22.8125 -5.570312 21.75 -3.125 19.625 -1.1875 C 17.5 0.75 14.878906 1.71875 11.765625 1.71875 C 8.347656 1.71875 5.492188 0.664062 3.203125 -1.4375 C 0.921875 -3.550781 -0.21875 -6.0625 -0.21875 -8.96875 C 0.707031 -9.425781 1.820312 -9.820312 3.125 -10.15625 C 4.4375 -10.488281 5.519531 -10.65625 6.375 -10.65625 C 6.375 -8.46875 6.785156 -6.703125 7.609375 -5.359375 C 8.429688 -4.023438 9.546875 -3.359375 10.953125 -3.359375 C 11.960938 -3.359375 12.738281 -3.640625 13.28125 -4.203125 C 13.832031 -4.765625 14.109375 -5.535156 14.109375 -6.515625 C 14.109375 -7.347656 13.828125 -8.160156 13.265625 -8.953125 C 12.703125 -9.742188 11.457031 -10.867188 9.53125 -12.328125 C 8.09375 -13.421875 7.023438 -14.296875 6.328125 -14.953125 C 5.640625 -15.617188 5.054688 -16.269531 4.578125 -16.90625 C 3.878906 -17.882812 3.359375 -18.894531 3.015625 -19.9375 C 2.671875 -20.988281 2.5 -22.117188 2.5 -23.328125 C 2.5 -26.203125 3.523438 -28.546875 5.578125 -30.359375 C 7.640625 -32.171875 10.335938 -33.078125 13.671875 -33.078125 C 16.628906 -33.078125 19.003906 -32.363281 20.796875 -30.9375 C 22.597656 -29.519531 23.785156 -27.414062 24.359375 -24.625 C 23.523438 -24.082031 22.578125 -23.660156 21.515625 -23.359375 C 20.453125 -23.054688 19.0625 -22.847656 17.34375 -22.734375 C 17.082031 -24.515625 16.648438 -25.789062 16.046875 -26.5625 C 15.441406 -27.34375 14.609375 -27.734375 13.546875 -27.734375 C 12.878906 -27.734375 12.351562 -27.523438 11.96875 -27.109375 C 11.582031 -26.691406 11.390625 -26.132812 11.390625 -25.4375 C 11.390625 -24.488281 11.675781 -23.582031 12.25 -22.71875 C 12.820312 -21.863281 14.085938 -20.703125 16.046875 -19.234375 C 17.484375 -18.171875 18.53125 -17.320312 19.1875 -16.6875 C 19.851562 -16.050781 20.414062 -15.40625 20.875 -14.75 Z M 20.875 -14.75 "/></g></g></g><g clip-path="url(#026762f221)"><path fill="#9dc0e0" d="M 315.949219 186.410156 L 293.851562 180.882812 C 293.851562 180.882812 283.5625 209.890625 268.828125 211.273438 C 248.402344 213.191406 246.859375 184.359375 247.101562 172.265625 C 247.234375 165.773438 247.058594 159.277344 246.285156 152.832031 C 239.066406 92.636719 199.355469 61.984375 152.0625 61.984375 C 51.703125 61.984375 5.667969 125.328125 5.667969 186.410156 C 5.667969 247.242188 45.835938 298.359375 198.097656 292.40625 C 315.953125 287.796875 315.949219 186.410156 315.949219 186.410156 " fill-opacity="1" fill-rule="nonzero"/></g><path fill="#eadcf4" d="M 199.648438 265.027344 C 76.019531 269.667969 23.347656 239.625 6.132812 197.335938 C 10.945312 253.21875 55.050781 298.003906 198.097656 292.40625 C 298.769531 288.472656 313.441406 213.925781 315.582031 192.273438 C 304.539062 222.285156 275.59375 262.175781 199.648438 265.027344 " fill-opacity="1" fill-rule="nonzero"/><path fill="#ddb6ff" d="M 198.097656 282.898438 C 67.683594 288 19.515625 251.226562 8.371094 202.34375 C 7.570312 200.695312 6.820312 199.027344 6.132812 197.335938 C 10.945312 253.21875 55.050781 298.003906 198.097656 292.40625 C 298.769531 288.472656 313.441406 213.925781 315.582031 192.273438 C 314.714844 194.628906 313.722656 197.046875 312.625 199.5 C 305.03125 229.660156 280.085938 279.695312 198.097656 282.898438 " fill-opacity="1" fill-rule="nonzero"/><g clip-path="url(#fc8c0b0d0b)"><path fill="#ffffff" d="M 200.453125 262.871094 C 135.75 265.40625 85.941406 258.238281 52.390625 241.570312 C 29.90625 230.402344 14.617188 215.242188 5.992188 195.566406 C 6.273438 199.484375 6.742188 203.347656 7.417969 207.144531 C 16.957031 222.96875 31.355469 235.75 50.546875 245.285156 C 80.292969 260.0625 122.386719 267.515625 175.917969 267.515625 C 183.894531 267.515625 192.132812 267.347656 200.613281 267.019531 C 236.542969 265.613281 265.765625 255.671875 287.464844 237.464844 C 298.109375 228.535156 306.808594 217.769531 313.488281 205.332031 C 314.855469 199.078125 315.464844 193.925781 315.734375 190.589844 C 302.960938 223.359375 272.523438 260.054688 200.453125 262.871094 " fill-opacity="1" fill-rule="nonzero"/></g><path fill="#9dc0e0" d="M 290.628906 202.082031 C 290.628906 202.082031 239.058594 183.011719 259.785156 157.378906 C 275.4375 138.023438 300.882812 173.132812 300.882812 173.132812 C 300.882812 173.132812 333.996094 130.640625 353.789062 163.152344 C 369.351562 188.71875 311.058594 207.609375 305.535156 205.308594 C 300.011719 203.003906 290.628906 202.082031 290.628906 202.082031 " fill-opacity="1" fill-rule="nonzero"/><path fill="#9dc0e0" d="M 121.773438 248.800781 C 121.773438 248.800781 107.554688 317.285156 153.429688 312.671875 C 205.113281 307.46875 163.8125 246.320312 163.8125 246.320312 " fill-opacity="1" fill-rule="nonzero"/><g clip-path="url(#9fff5502df)"><path fill="#ffffff" d="M 149.132812 314.964844 C 140.167969 314.964844 132.976562 312.011719 127.710938 306.15625 C 111.675781 288.332031 119.40625 250 119.746094 248.375 C 119.976562 247.25 121.078125 246.527344 122.195312 246.769531 C 123.316406 247 124.035156 248.097656 123.800781 249.21875 C 123.722656 249.597656 116.160156 287.125 130.789062 303.386719 C 135.980469 309.152344 143.523438 311.574219 153.222656 310.605469 C 164.679688 309.453125 172.136719 305.351562 175.386719 298.414062 C 183.921875 280.183594 162.316406 247.808594 162.097656 247.484375 C 161.457031 246.535156 161.707031 245.246094 162.65625 244.605469 C 163.605469 243.964844 164.890625 244.210938 165.53125 245.160156 C 166.480469 246.566406 188.664062 279.8125 179.140625 300.167969 C 175.230469 308.523438 166.648438 313.425781 153.636719 314.734375 C 152.089844 314.886719 150.589844 314.964844 149.132812 314.964844 " fill-opacity="1" fill-rule="nonzero"/></g><path fill="#c9e0f4" d="M 140.117188 52.5 C 135.671875 45.621094 108.445312 51.746094 116.417969 38.1875 C 125.21875 23.222656 136.671875 41.40625 140.117188 52.5 " fill-opacity="1" fill-rule="nonzero"/><path fill="#c9e0f4" d="M 139.984375 26.976562 C 135.675781 26.035156 117.875 19.089844 126.628906 11.398438 C 136.289062 2.914062 140.132812 18.371094 139.984375 26.976562 " fill-opacity="1" fill-rule="nonzero"/><path fill="#c9e0f4" d="M 149.996094 19.992188 C 149.566406 16.261719 150.28125 0.0234375 158.859375 4.96875 C 168.324219 10.425781 156.953125 17.753906 149.996094 19.992188 " fill-opacity="1" fill-rule="nonzero"/><path fill="#c9e0f4" d="M 146.316406 52.5 C 151.4375 44.574219 182.816406 51.628906 173.628906 36.003906 C 163.484375 18.757812 150.285156 39.714844 146.316406 52.5 " fill-opacity="1" fill-rule="nonzero"/><path fill="#33375a" d="M 61.859375 166.597656 C 61.859375 169.90625 60.410156 172.59375 58.625 172.59375 C 56.835938 172.59375 55.386719 169.90625 55.386719 166.597656 C 55.386719 163.28125 56.835938 160.597656 58.625 160.597656 C 60.410156 160.597656 61.859375 163.28125 61.859375 166.597656 " fill-opacity="1" fill-rule="nonzero"/><path fill="#33375a" d="M 87.515625 166.597656 C 87.515625 169.90625 86.066406 172.59375 84.28125 172.59375 C 82.496094 172.59375 81.046875 169.90625 81.046875 166.597656 C 81.046875 163.28125 82.496094 160.597656 84.28125 160.597656 C 86.066406 160.597656 87.515625 163.28125 87.515625 166.597656 " fill-opacity="1" fill-rule="nonzero"/><path fill="#33375a" d="M 71.496094 203.152344 C 67.40625 203.152344 64.203125 198.277344 64.203125 192.046875 C 64.203125 191.285156 64.820312 190.664062 65.585938 190.664062 C 66.347656 190.664062 66.964844 191.285156 66.964844 192.046875 C 66.964844 196.492188 69.085938 200.390625 71.496094 200.390625 C 73.910156 200.390625 76.027344 196.492188 76.027344 192.046875 C 76.027344 191.285156 76.644531 190.664062 77.40625 190.664062 C 78.167969 190.664062 78.789062 191.285156 78.789062 192.046875 C 78.789062 198.277344 75.585938 203.152344 71.496094 203.152344 " fill-opacity="1" fill-rule="nonzero"/><path fill="#ff6d5a" d="M 103.414062 179.570312 C 104.515625 181.929688 102.347656 185.273438 98.574219 187.039062 C 94.800781 188.800781 90.851562 188.320312 89.75 185.960938 C 88.652344 183.601562 90.816406 180.257812 94.589844 178.492188 C 98.359375 176.730469 102.3125 177.210938 103.414062 179.570312 " fill-opacity="1" fill-rule="nonzero"/><path fill="#ff6d5a" d="M 41.4375 179.570312 C 40.339844 181.929688 42.503906 185.273438 46.277344 187.039062 C 50.050781 188.800781 54 188.320312 55.101562 185.960938 C 56.203125 183.601562 54.039062 180.257812 50.265625 178.492188 C 46.492188 176.730469 42.539062 177.210938 41.4375 179.570312 " fill-opacity="1" fill-rule="nonzero"/><path fill="#7eafce" d="M 294.621094 202.605469 L 284.140625 199.777344 C 280.023438 205.632812 274.792969 210.714844 268.828125 211.273438 C 267.417969 211.40625 266.097656 211.378906 264.859375 211.230469 C 282.09375 225.578125 294.621094 202.605469 294.621094 202.605469 " fill-opacity="1" fill-rule="nonzero"/><path fill="#eadcf4" d="M 166.117188 80.308594 C 166.117188 82.332031 164.484375 83.96875 162.464844 83.96875 C 160.445312 83.96875 158.808594 82.332031 158.808594 80.308594 C 158.808594 78.289062 160.445312 76.652344 162.464844 76.652344 C 164.484375 76.652344 166.117188 78.289062 166.117188 80.308594 " fill-opacity="1" fill-rule="nonzero"/><path fill="#eadcf4" d="M 199.375 108.351562 C 199.375 110.371094 197.738281 112.011719 195.71875 112.011719 C 193.699219 112.011719 192.0625 110.371094 192.0625 108.351562 C 192.0625 106.332031 193.699219 104.695312 195.71875 104.695312 C 197.738281 104.695312 199.375 106.332031 199.375 108.351562 " fill-opacity="1" fill-rule="nonzero"/><path fill="#eadcf4" d="M 226.636719 140.910156 C 226.636719 142.933594 225 144.570312 222.980469 144.570312 C 220.960938 144.570312 219.328125 142.933594 219.328125 140.910156 C 219.328125 138.890625 220.960938 137.25 222.980469 137.25 C 225 137.25 226.636719 138.890625 226.636719 140.910156 " fill-opacity="1" fill-rule="nonzero"/><path fill="#eadcf4" d="M 238.289062 178.542969 C 238.289062 180.5625 236.652344 182.203125 234.636719 182.203125 C 232.617188 182.203125 230.980469 180.5625 230.980469 178.542969 C 230.980469 176.523438 232.617188 174.882812 234.636719 174.882812 C 236.652344 174.882812 238.289062 176.523438 238.289062 178.542969 " fill-opacity="1" fill-rule="nonzero"/><path fill="#eadcf4" d="M 226.636719 120.175781 C 226.636719 122.195312 225 123.832031 222.980469 123.832031 C 220.960938 123.832031 219.328125 122.195312 219.328125 120.175781 C 219.328125 118.152344 220.960938 116.515625 222.980469 116.515625 C 225 116.515625 226.636719 118.152344 226.636719 120.175781 " fill-opacity="1" fill-rule="nonzero"/><path fill="#eadcf4" d="M 168.167969 100.992188 C 168.167969 103.011719 166.527344 104.652344 164.511719 104.652344 C 162.492188 104.652344 160.855469 103.011719 160.855469 100.992188 C 160.855469 98.972656 162.492188 97.332031 164.511719 97.332031 C 166.527344 97.332031 168.167969 98.972656 168.167969 100.992188 " fill-opacity="1" fill-rule="nonzero"/><path fill="#eadcf4" d="M 203.027344 126.109375 C 203.027344 128.128906 201.394531 129.769531 199.375 129.769531 C 197.355469 129.769531 195.71875 128.128906 195.71875 126.109375 C 195.71875 124.085938 197.355469 122.449219 199.375 122.449219 C 201.394531 122.449219 203.027344 124.085938 203.027344 126.109375 " fill-opacity="1" fill-rule="nonzero"/><path fill="#eadcf4" d="M 147.300781 76.652344 C 147.300781 78.671875 145.664062 80.308594 143.644531 80.308594 C 141.625 80.308594 139.988281 78.671875 139.988281 76.652344 C 139.988281 74.628906 141.625 72.992188 143.644531 72.992188 C 145.664062 72.992188 147.300781 74.628906 147.300781 76.652344 " fill-opacity="1" fill-rule="nonzero"/><path fill="#eadcf4" d="M 185.453125 93.671875 C 185.453125 95.695312 183.816406 97.332031 181.796875 97.332031 C 179.78125 97.332031 178.144531 95.695312 178.144531 93.671875 C 178.144531 91.65625 179.78125 90.015625 181.796875 90.015625 C 183.816406 90.015625 185.453125 91.65625 185.453125 93.671875 " fill-opacity="1" fill-rule="nonzero"/><path fill="#eadcf4" d="M 183.078125 120.175781 C 183.078125 122.195312 181.445312 123.832031 179.425781 123.832031 C 177.40625 123.832031 175.769531 122.195312 175.769531 120.175781 C 175.769531 118.152344 177.40625 116.515625 179.425781 116.515625 C 181.445312 116.515625 183.078125 118.152344 183.078125 120.175781 " fill-opacity="1" fill-rule="nonzero"/><path fill="#eadcf4" d="M 207.828125 147.246094 C 207.828125 149.265625 206.191406 150.902344 204.171875 150.902344 C 202.152344 150.902344 200.515625 149.265625 200.515625 147.246094 C 200.515625 145.222656 202.152344 143.585938 204.171875 143.585938 C 206.191406 143.585938 207.828125 145.222656 207.828125 147.246094 " fill-opacity="1" fill-rule="nonzero"/><path fill="#eadcf4" d="M 226.636719 164.257812 C 226.636719 166.277344 225 167.917969 222.980469 167.917969 C 220.960938 167.917969 219.328125 166.277344 219.328125 164.257812 C 219.328125 162.238281 220.960938 160.597656 222.980469 160.597656 C 225 160.597656 226.636719 162.238281 226.636719 164.257812 " fill-opacity="1" fill-rule="nonzero"/><path fill="#eadcf4" d="M 186.734375 140.910156 C 186.734375 142.933594 185.097656 144.570312 183.078125 144.570312 C 181.0625 144.570312 179.425781 142.933594 179.425781 140.910156 C 179.425781 138.890625 181.0625 137.25 183.078125 137.25 C 185.097656 137.25 186.734375 138.890625 186.734375 140.910156 " fill-opacity="1" fill-rule="nonzero"/></svg>