<svg xmlns="http://www.w3.org/2000/svg" xmlns:xlink="http://www.w3.org/1999/xlink" width="250" zoomAndPan="magnify" viewBox="0 0 187.5 187.499992" height="250" preserveAspectRatio="xMidYMid meet" version="1.0"><defs><clipPath id="cfbddc8643"><path d="M 2 1.953125 L 185.628906 1.953125 L 185.628906 185.550781 L 2 185.550781 Z M 2 1.953125 " clip-rule="nonzero"/></clipPath><clipPath id="3c09ce189f"><path d="M 1.878906 3.054688 L 185.628906 3.054688 L 185.628906 185.550781 L 1.878906 185.550781 Z M 1.878906 3.054688 " clip-rule="nonzero"/></clipPath><clipPath id="fd4d228564"><path d="M 78.375 77 L 109.125 77 L 109.125 114.328125 L 78.375 114.328125 Z M 78.375 77 " clip-rule="nonzero"/></clipPath></defs><g clip-path="url(#cfbddc8643)"><path fill="#4c5270" d="M 185.550781 147.945312 C 185.328125 144.902344 184.363281 141.941406 183.238281 139.105469 C 182.113281 136.269531 175.914062 129.253906 173.90625 126.957031 C 162.75 114.234375 152.796875 104.835938 142.382812 94.128906 C 138.386719 98.183594 134.410156 102.214844 130.496094 106.210938 C 121.914062 114.972656 106.308594 130.449219 94.054688 142.472656 C 103.019531 151.960938 112.183594 161.265625 121.546875 170.359375 C 127.25 175.898438 133.292969 181.527344 140.847656 183.996094 C 150.839844 187.265625 162.550781 185.351562 170.578125 178.558594 C 173.386719 176.183594 175.734375 173.316406 178.0625 170.464844 C 180.851562 167.050781 186.347656 158.714844 185.550781 147.945312 Z M 3.621094 46.617188 C 1.949219 42.453125 1.394531 37.675781 2.984375 33.472656 C 3.71875 31.519531 4.390625 29.417969 5.382812 27.582031 C 9.832031 19.359375 15.734375 11.660156 23.714844 6.789062 C 31.695312 1.917969 41.992188 0.242188 50.539062 4.03125 C 54.316406 5.707031 57.582031 8.339844 60.710938 11.039062 C 72.695312 21.375 83.355469 33.136719 93.953125 44.894531 C 88.570312 49.890625 82.988281 54.84375 78.019531 60.109375 C 67.425781 71.332031 57.277344 83.449219 46.144531 94.222656 C 45.039062 93.230469 43.898438 92.269531 42.769531 91.304688 C 31.050781 81.277344 20.3125 70.097656 10.773438 57.976562 C 8 54.449219 5.289062 50.789062 3.621094 46.617188 " fill-opacity="1" fill-rule="nonzero"/></g><g clip-path="url(#3c09ce189f)"><path fill="#e6c2bf" d="M 179.390625 20.246094 C 180.253906 21.332031 181.101562 22.4375 181.816406 23.628906 C 184.808594 28.582031 185.550781 34.300781 185.550781 40.085938 C 185.550781 49.773438 179.019531 55.699219 174.914062 60.203125 C 160.773438 75.722656 145.1875 91.210938 130.496094 106.210938 C 117.355469 119.625 87.742188 148.796875 78.910156 157.1875 C 74.058594 161.800781 69.136719 167.085938 64.652344 172.054688 C 54.414062 183.398438 46.582031 184.300781 42.988281 184.882812 C 40.734375 185.25 38.46875 185.613281 36.191406 185.539062 C 30.164062 185.339844 24.703125 182.125 19.542969 179.003906 C 12.089844 174.492188 6.234375 166.746094 3.078125 158.625 C 2.375 156.816406 1.792969 154.90625 1.890625 152.96875 C 2.253906 145.789062 4.519531 137.21875 9.3125 131.863281 C 11.664062 129.234375 32.28125 107.039062 42.242188 97.910156 C 54.9375 86.273438 66.199219 72.632812 78.019531 60.109375 C 84.617188 53.121094 92.296875 46.675781 99.160156 39.949219 C 110.367188 28.957031 116.128906 23.308594 127.339844 12.316406 C 132.492188 7.265625 139.308594 4.484375 146.460938 3.542969 C 165.660156 1.023438 175.859375 15.789062 179.390625 20.246094 " fill-opacity="1" fill-rule="nonzero"/></g><path fill="#f5f5ef" d="M 18.566406 47.128906 C 19.042969 47.4375 19.652344 47.664062 20.164062 47.425781 C 20.625 47.214844 20.863281 46.703125 20.960938 46.210938 C 21.304688 44.445312 19.503906 41.121094 17.292969 42.148438 C 15.101562 43.167969 17.320312 46.328125 18.566406 47.128906 Z M 29.566406 42.070312 C 29.546875 42.75 29.851562 43.40625 30.269531 43.941406 C 30.90625 44.75 31.902344 45.351562 32.921875 45.230469 C 33.085938 45.210938 33.253906 45.171875 33.390625 45.074219 C 33.53125 44.972656 33.625 44.820312 33.703125 44.667969 C 34.203125 43.683594 34.132812 42.417969 33.472656 41.535156 C 32.472656 40.199219 29.628906 39.839844 29.566406 42.070312 Z M 30.691406 30.609375 C 31.179688 31.609375 32.1875 32.332031 33.289062 32.480469 C 33.476562 32.503906 33.683594 32.511719 33.839844 32.40625 C 34.007812 32.296875 34.082031 32.089844 34.128906 31.894531 C 34.503906 30.335938 33.722656 28.226562 32.078125 27.722656 C 30.191406 27.140625 30.066406 29.328125 30.691406 30.609375 Z M 44 29.058594 C 44.21875 29.957031 44.867188 30.71875 45.671875 31.175781 C 45.933594 31.328125 46.234375 31.449219 46.53125 31.386719 C 46.859375 31.320312 47.105469 31.027344 47.210938 30.710938 C 47.320312 30.394531 47.3125 30.050781 47.300781 29.714844 C 47.269531 28.96875 47.203125 28.191406 46.800781 27.5625 C 45.542969 25.597656 43.53125 27.09375 44 29.058594 Z M 57.757812 27.496094 C 57.835938 28.265625 58.214844 28.996094 58.792969 29.507812 C 59.242188 29.90625 59.898438 30.171875 60.441406 29.917969 C 60.839844 29.730469 61.082031 29.292969 61.121094 28.851562 C 61.15625 28.414062 61.011719 27.976562 60.804688 27.585938 C 60.089844 26.246094 57.476562 24.796875 57.757812 27.496094 Z M 44.695312 44.179688 C 45.285156 44.699219 46.296875 44.78125 46.808594 44.1875 C 46.992188 43.972656 47.09375 43.703125 47.152344 43.425781 C 47.445312 42.058594 46.179688 40.488281 44.671875 40.839844 C 43.214844 41.179688 43.832031 43.414062 44.695312 44.179688 Z M 31.839844 58.46875 C 32.398438 58.878906 33.203125 59.1875 33.734375 58.746094 C 33.921875 58.59375 34.039062 58.367188 34.109375 58.136719 C 34.40625 57.207031 34.074219 56.152344 33.414062 55.433594 C 32.746094 54.710938 31.234375 53.714844 30.441406 54.707031 C 29.433594 55.96875 30.859375 57.753906 31.839844 58.46875 Z M 44.476562 54.765625 C 44.007812 55.253906 43.804688 55.984375 43.964844 56.644531 C 44.121094 57.304688 44.632812 57.871094 45.273438 58.09375 C 45.640625 58.222656 46.101562 58.21875 46.363281 57.929688 C 46.507812 57.769531 46.566406 57.550781 46.605469 57.335938 C 46.734375 56.660156 46.726562 55.917969 46.367188 55.328125 C 46.003906 54.742188 45.214844 54.386719 44.59375 54.6875 M 59.214844 45.097656 C 59.554688 45.152344 59.933594 45.117188 60.1875 44.886719 C 60.417969 44.675781 60.5 44.347656 60.535156 44.039062 C 60.667969 42.703125 59.691406 40.152344 58.023438 41.402344 C 56.53125 42.519531 57.585938 44.832031 59.214844 45.097656 Z M 71.949219 56.796875 C 72.304688 57.230469 72.726562 57.628906 73.253906 57.816406 C 73.78125 58.007812 74.425781 57.941406 74.816406 57.542969 C 75.269531 57.082031 75.261719 56.320312 75.007812 55.726562 C 74.632812 54.84375 73.222656 53.671875 72.175781 53.8125 C 70.578125 54.023438 71.253906 55.945312 71.949219 56.796875 Z M 57.597656 56.996094 C 57.824219 57.363281 58.101562 57.714844 58.472656 57.933594 C 58.84375 58.152344 59.324219 58.226562 59.710938 58.03125 C 60.160156 57.804688 60.382812 57.269531 60.414062 56.769531 C 60.480469 55.675781 59.402344 53.921875 58.132812 53.960938 C 56.503906 54.007812 57.03125 56.078125 57.597656 56.996094 Z M 57.476562 69.019531 C 57.769531 69.816406 58.535156 70.390625 59.371094 70.554688 C 59.855469 70.648438 60.421875 70.589844 60.738281 70.207031 C 60.964844 69.933594 61.011719 69.550781 60.980469 69.199219 C 60.738281 66.34375 56.339844 65.925781 57.476562 69.019531 Z M 43.203125 70.097656 C 43.425781 71.035156 44.242188 71.785156 45.183594 71.988281 C 45.449219 72.046875 45.730469 72.0625 45.988281 71.976562 C 46.378906 71.84375 46.660156 71.492188 46.796875 71.105469 C 47.074219 70.3125 46.785156 69.394531 46.199219 68.796875 C 44.847656 67.421875 42.65625 67.773438 43.203125 70.097656 Z M 52.851562 110.640625 C 53.4375 111.257812 54.488281 111.445312 55.152344 110.917969 C 56.535156 109.820312 56.488281 106.316406 54.25 106.359375 C 52.148438 106.402344 51.574219 109.296875 52.851562 110.640625 Z M 53.433594 123.050781 C 53.4375 123.628906 53.570312 124.246094 53.996094 124.636719 C 54.605469 125.195312 55.648438 125.054688 56.230469 124.46875 C 56.808594 123.882812 56.976562 122.980469 56.855469 122.167969 C 56.8125 121.898438 56.742188 121.628906 56.578125 121.414062 C 55.101562 119.441406 53.421875 121.210938 53.433594 123.050781 Z M 40.652344 124.566406 C 41.304688 125.058594 42.304688 125.066406 42.917969 124.523438 C 43.300781 124.183594 43.503906 123.683594 43.597656 123.179688 C 43.839844 121.875 42.304688 120.480469 40.964844 120.890625 C 39.460938 121.351562 39.582031 123.757812 40.652344 124.566406 Z M 40.953125 135.09375 C 40.59375 135.769531 40.597656 136.621094 40.964844 137.292969 C 41.277344 137.871094 41.921875 138.316406 42.570312 138.210938 C 43.03125 138.132812 43.414062 137.796875 43.652344 137.394531 C 43.894531 136.996094 44.011719 136.539062 44.121094 136.085938 C 44.261719 135.503906 44.394531 134.878906 44.167969 134.324219 C 43.5625 132.832031 41.441406 134.179688 40.953125 135.09375 Z M 26.777344 136.890625 C 27.160156 137.769531 28.265625 138.328125 29.140625 137.941406 C 30.789062 137.207031 31.152344 134.207031 29.269531 133.542969 C 27.390625 132.882812 26.105469 135.34375 26.777344 136.890625 Z M 27.667969 150.773438 C 27.960938 151.585938 28.910156 151.992188 29.773438 151.960938 C 30.101562 151.949219 30.4375 151.886719 30.703125 151.691406 C 31.0625 151.425781 31.222656 150.976562 31.339844 150.542969 C 31.667969 149.332031 31.425781 147.230469 29.667969 147.328125 C 28.351562 147.398438 27.253906 149.628906 27.667969 150.773438 Z M 41.636719 163.089844 C 41.570312 163.589844 41.640625 164.125 41.914062 164.550781 C 42.191406 164.976562 42.691406 165.269531 43.195312 165.222656 C 43.839844 165.160156 44.316406 164.597656 44.625 164.035156 C 45.011719 163.328125 45.257812 162.480469 45.007812 161.714844 C 44.207031 159.246094 41.835938 161.585938 41.636719 163.089844 Z M 41.457031 149.007812 C 41.171875 149.773438 41.21875 150.785156 41.910156 151.21875 C 42.304688 151.46875 42.824219 151.453125 43.269531 151.296875 C 46.648438 150.097656 42.917969 145.058594 41.457031 149.007812 Z M 56.605469 138.257812 C 59.003906 138.058594 58.3125 134.667969 56.1875 134.492188 C 53.472656 134.269531 54.355469 138.441406 56.605469 138.257812 Z M 66.714844 124.070312 C 66.898438 124.550781 67.292969 124.976562 67.792969 125.085938 C 68.347656 125.207031 68.929688 124.929688 69.304688 124.507812 C 70.238281 123.445312 70.894531 120.363281 68.886719 120.054688 C 66.949219 119.753906 66.195312 122.691406 66.714844 124.070312 Z M 68.625 136.308594 C 68.421875 136.9375 68.460938 137.628906 68.632812 138.265625 C 68.761719 138.738281 68.976562 139.207031 69.347656 139.527344 C 69.722656 139.847656 70.28125 139.984375 70.71875 139.761719 C 71.183594 139.523438 71.386719 138.964844 71.496094 138.453125 C 71.625 137.835938 71.675781 137.203125 71.648438 136.574219 C 71.546875 134.199219 69.3125 134.179688 68.625 136.308594 Z M 68.757812 151.765625 C 68.917969 152.335938 69.382812 152.851562 69.972656 152.90625 C 70.429688 152.949219 70.882812 152.699219 71.179688 152.347656 C 71.480469 151.992188 71.640625 151.546875 71.753906 151.097656 C 72.058594 149.890625 72.046875 147.695312 70.140625 148.101562 C 68.808594 148.382812 68.449219 150.691406 68.757812 151.765625 Z M 55.160156 152.152344 C 55.523438 152.308594 55.929688 152.398438 56.320312 152.339844 C 58.476562 152 58.882812 148.199219 56.398438 148.027344 C 53.980469 147.859375 52.664062 151.09375 55.160156 152.152344 Z M 105.863281 134.828125 C 106.03125 136.015625 107.003906 137.105469 108.199219 137.195312 C 108.382812 137.207031 108.574219 137.199219 108.734375 137.113281 C 109.027344 136.957031 109.148438 136.609375 109.222656 136.289062 C 109.539062 134.910156 109.398438 132.753906 107.792969 132.175781 C 106.21875 131.609375 105.683594 133.589844 105.863281 134.828125 Z M 120.972656 117.664062 C 120.773438 117.542969 120.570312 117.820312 120.519531 118.042969 C 120.378906 118.695312 120.4375 119.386719 120.6875 120 C 120.871094 120.453125 121.175781 120.878906 121.613281 121.09375 C 122.054688 121.308594 122.640625 121.261719 122.964844 120.898438 C 123.15625 120.683594 123.234375 120.390625 123.257812 120.105469 C 123.347656 118.894531 122.3125 117.710938 121.097656 117.640625 M 120.019531 134.109375 C 120.441406 134.628906 121.066406 135.109375 121.722656 134.976562 C 122.203125 134.882812 122.574219 134.472656 122.746094 134.011719 C 122.914062 133.554688 122.917969 133.050781 122.890625 132.5625 C 122.738281 129.574219 117.273438 130.710938 120.019531 134.109375 Z M 133.292969 118.21875 C 133.371094 119.066406 133.832031 119.875 134.527344 120.367188 C 134.972656 120.675781 135.582031 120.859375 136.050781 120.585938 C 136.492188 120.328125 136.648438 119.769531 136.710938 119.261719 C 136.804688 118.472656 136.765625 117.636719 136.378906 116.945312 C 135.195312 114.8125 133.109375 116.164062 133.292969 118.21875 Z M 148.746094 120.382812 C 149.007812 120.402344 149.285156 120.378906 149.511719 120.242188 C 149.707031 120.125 149.847656 119.929688 149.960938 119.726562 C 150.777344 118.234375 149.613281 114.515625 147.441406 115.632812 C 145.253906 116.761719 146.605469 120.222656 148.746094 120.382812 Z M 132.828125 131.425781 C 132.769531 132.046875 133.042969 132.648438 133.390625 133.164062 C 133.671875 133.578125 134.015625 133.964844 134.460938 134.199219 C 134.90625 134.433594 135.460938 134.492188 135.90625 134.261719 C 136.542969 133.933594 136.78125 133.140625 136.851562 132.425781 C 136.917969 131.820312 136.882812 131.144531 136.472656 130.691406 C 135.574219 129.714844 132.980469 129.84375 132.828125 131.425781 Z M 147.144531 132.980469 C 147.621094 133.632812 148.378906 134.066406 149.183594 134.148438 C 149.371094 134.167969 149.574219 134.164062 149.738281 134.070312 C 149.875 133.992188 149.972656 133.859375 150.054688 133.726562 C 150.636719 132.78125 150.65625 131.5 150.035156 130.582031 C 148.214844 127.875 145.378906 130.558594 147.144531 132.980469 Z M 133.652344 145.085938 C 133.65625 145.800781 133.761719 146.53125 134.085938 147.171875 C 134.410156 147.8125 134.972656 148.351562 135.667969 148.535156 C 136.011719 148.625 136.398438 148.617188 136.707031 148.433594 C 137.179688 148.152344 137.34375 147.550781 137.414062 147.007812 C 137.492188 146.429688 137.515625 145.835938 137.363281 145.269531 C 137.214844 144.707031 136.875 144.175781 136.367188 143.890625 C 135.027344 143.144531 133.640625 143.425781 133.652344 145.085938 Z M 121.003906 148.859375 C 121.414062 149.109375 121.96875 149.238281 122.34375 148.941406 C 122.550781 148.773438 122.652344 148.507812 122.71875 148.25 C 123.003906 147.109375 122.246094 143.710938 120.441406 144.664062 C 118.84375 145.507812 119.851562 148.148438 121.003906 148.859375 Z M 160.765625 146.929688 C 161.171875 147.355469 161.808594 147.652344 162.347656 147.417969 C 162.738281 147.246094 162.976562 146.84375 163.132812 146.445312 C 163.429688 145.695312 163.527344 144.820312 163.171875 144.09375 C 162.703125 143.140625 161.144531 142.523438 160.378906 143.367188 C 159.550781 144.28125 160.015625 146.148438 160.765625 146.929688 Z M 148.234375 148.074219 C 148.722656 148.320312 149.355469 148.335938 149.792969 148.011719 C 150.257812 147.664062 150.414062 147.039062 150.464844 146.460938 C 150.609375 144.917969 149.164062 143.132812 147.472656 143.996094 C 145.859375 144.820312 146.984375 147.4375 148.234375 148.074219 Z M 146.796875 158.488281 C 146.820312 158.78125 146.953125 159.058594 147.113281 159.3125 C 147.484375 159.90625 148.023438 160.398438 148.652344 160.71875 C 149.039062 160.914062 149.519531 161.039062 149.890625 160.816406 C 150.140625 160.667969 150.28125 160.386719 150.382812 160.113281 C 150.714844 159.195312 150.6875 158.09375 150.097656 157.316406 C 149.023438 155.902344 146.628906 156.5625 146.796875 158.488281 Z M 132.53125 161.25 C 132.851562 161.570312 133.316406 161.765625 133.757812 161.679688 C 134.398438 161.558594 134.808594 160.902344 134.917969 160.261719 C 135.117188 159.058594 134.023438 156.515625 132.445312 157.28125 C 131.105469 157.929688 131.714844 160.445312 132.53125 161.25 Z M 145.277344 21.042969 C 146.589844 19.527344 144.402344 15.875 142.644531 17.972656 C 141.1875 19.710938 143.933594 22.59375 145.277344 21.042969 Z M 130.886719 34.019531 C 131.210938 34.246094 131.566406 34.453125 131.960938 34.488281 C 132.738281 34.5625 133.464844 33.851562 133.523438 33.070312 C 133.585938 32.285156 133.066406 31.527344 132.367188 31.175781 C 129.847656 29.910156 128.800781 32.554688 130.886719 34.019531 Z M 143.449219 33.734375 C 143.75 34.007812 144.136719 34.171875 144.535156 34.269531 C 144.980469 34.375 145.488281 34.386719 145.851562 34.109375 C 146.125 33.898438 146.269531 33.558594 146.316406 33.214844 C 146.40625 32.542969 146.132812 31.835938 145.617188 31.394531 C 143.828125 29.878906 141.816406 32.242188 143.449219 33.734375 Z M 157.832031 34.277344 C 158.339844 34.605469 158.996094 34.691406 159.570312 34.507812 C 159.78125 34.441406 159.984375 34.332031 160.125 34.160156 C 160.257812 33.988281 160.3125 33.765625 160.335938 33.550781 C 160.410156 32.773438 160.050781 31.953125 159.390625 31.542969 C 157.351562 30.273438 155.960938 33.066406 157.832031 34.277344 Z M 145.019531 48.433594 C 145.570312 48.621094 146.242188 48.628906 146.679688 48.242188 C 146.988281 47.976562 147.128906 47.558594 147.15625 47.152344 C 147.246094 45.6875 145.484375 43.839844 143.972656 44.722656 C 142.304688 45.699219 143.660156 47.976562 145.019531 48.433594 Z M 158.085938 48.214844 C 158.585938 48.886719 159.601562 49.230469 160.300781 48.765625 C 160.882812 48.375 161.046875 47.601562 161.097656 46.90625 C 161.132812 46.476562 161.128906 46.023438 160.894531 45.664062 C 159.652344 43.765625 156.496094 46.089844 158.085938 48.214844 Z M 158.375 61.554688 C 158.980469 62.179688 160.105469 62.328125 160.707031 61.695312 C 161.140625 61.238281 161.1875 60.539062 161.175781 59.90625 C 161.105469 56.808594 155.929688 59.027344 158.375 61.554688 Z M 145.589844 61.808594 C 146.09375 61.90625 146.65625 61.882812 147.0625 61.570312 C 147.449219 61.273438 147.621094 60.761719 147.636719 60.277344 C 147.695312 58.644531 145.90625 57.359375 144.425781 58.308594 C 142.738281 59.390625 144.046875 61.503906 145.589844 61.808594 Z M 132.894531 48.742188 C 133.289062 48.597656 133.585938 48.25 133.753906 47.863281 C 133.921875 47.480469 133.976562 47.054688 134.019531 46.636719 C 134.054688 46.308594 134.082031 45.964844 133.964844 45.652344 C 133.433594 44.246094 130.921875 44 130.308594 45.4375 C 129.714844 46.828125 131.25 49.347656 132.894531 48.742188 Z M 131.054688 60.945312 C 131.765625 61.546875 132.933594 61.53125 133.601562 60.882812 C 134.265625 60.234375 134.292969 59.03125 133.628906 58.378906 C 131.601562 56.402344 128.992188 59.199219 131.054688 60.945312 Z M 132.253906 74.808594 C 132.925781 74.988281 133.691406 74.878906 134.222656 74.429688 C 134.753906 73.980469 134.980469 73.171875 134.675781 72.550781 C 134.160156 71.5 132.257812 70.890625 131.386719 71.8125 C 130.410156 72.84375 130.945312 74.453125 132.253906 74.808594 Z M 118.242188 57.707031 C 117.820312 57.980469 117.578125 58.488281 117.582031 58.988281 C 117.582031 59.488281 117.820312 59.976562 118.1875 60.320312 C 118.613281 60.71875 119.289062 60.925781 119.796875 60.632812 C 120.253906 60.367188 120.441406 59.765625 120.351562 59.246094 C 120.261719 58.722656 119.925781 58.25 119.460938 57.988281 C 119 57.730469 118.421875 57.691406 117.925781 57.886719 M 116.863281 43.757812 C 117.617188 42.511719 119.308594 43.464844 119.660156 44.539062 C 119.929688 45.355469 119.742188 46.304688 119.183594 46.960938 C 119.074219 47.09375 118.941406 47.214844 118.777344 47.261719 C 118.585938 47.316406 118.378906 47.261719 118.203125 47.171875 C 117.304688 46.722656 116.277344 44.730469 116.863281 43.757812 " fill-opacity="1" fill-rule="nonzero"/><path fill="#ffffff" d="M 125.664062 91.445312 C 126.609375 92.742188 127.164062 94.417969 126.757812 95.96875 C 126.535156 96.820312 126.042969 97.574219 125.554688 98.304688 C 118.578125 108.703125 110.179688 118.148438 100.664062 126.289062 C 99.390625 127.378906 97.972656 128.496094 96.300781 128.582031 C 94.148438 128.695312 92.335938 127.09375 90.789062 125.59375 C 83.742188 118.789062 76.695312 111.980469 69.648438 105.171875 C 67.347656 102.953125 65.058594 101.335938 62.785156 99.082031 C 61.316406 97.628906 59.796875 95.75 60.226562 93.726562 C 60.425781 92.789062 61.023438 91.992188 61.613281 91.234375 C 69.175781 81.457031 77.554688 72.3125 86.636719 63.929688 C 88.265625 62.425781 90.207031 60.851562 92.40625 61.097656 C 93.824219 61.257812 95.035156 62.160156 96.15625 63.046875 C 105.441406 70.390625 124.714844 90.152344 125.664062 91.445312 " fill-opacity="1" fill-rule="nonzero"/><g clip-path="url(#fd4d228564)"><path fill="#9fc7aa" d="M 108.453125 91.046875 C 108.308594 91.191406 108.117188 91.285156 108.308594 91.527344 C 108.359375 91.574219 108.308594 91.71875 108.308594 91.859375 L 108.070312 91.8125 L 108.070312 92.003906 L 108.5 92.054688 L 108.359375 92.292969 C 108.023438 92.101562 108.261719 92.484375 108.117188 92.53125 C 107.972656 92.246094 107.6875 92.054688 107.351562 92.101562 C 107.253906 92.101562 107.207031 92.148438 107.109375 92.195312 C 107.253906 92.195312 107.398438 92.195312 107.398438 92.390625 C 107.398438 92.390625 107.542969 92.4375 107.636719 92.484375 C 107.734375 92.484375 107.78125 92.484375 107.828125 92.53125 L 107.445312 92.773438 L 107.972656 92.820312 L 108.117188 92.582031 C 108.164062 92.964844 108.164062 92.964844 107.828125 92.964844 L 108.117188 93.445312 C 107.972656 93.636719 107.828125 93.875 107.636719 94.117188 L 107.398438 94.066406 C 107.351562 94.308594 107.351562 94.59375 107.300781 94.882812 L 107.542969 94.789062 L 107.300781 95.171875 L 106.917969 95.027344 L 106.871094 95.125 L 107.207031 95.457031 L 106.726562 96.273438 L 106.726562 95.988281 C 106.535156 96.082031 106.535156 96.082031 106.292969 96.464844 L 106.488281 96.371094 L 106.535156 96.753906 L 106.152344 96.800781 L 106.152344 96.5625 L 106.054688 96.5625 L 106.152344 97.042969 C 106.101562 97.042969 106.054688 97.042969 106.007812 97.042969 C 105.863281 97.089844 105.863281 96.992188 105.863281 96.898438 C 105.863281 96.851562 105.863281 96.851562 105.863281 96.800781 C 105.863281 96.753906 105.71875 96.800781 105.71875 96.800781 C 105.71875 96.898438 105.671875 97.042969 105.71875 97.089844 C 106.007812 97.28125 105.816406 97.570312 105.960938 97.808594 C 105.960938 97.808594 105.863281 97.90625 105.765625 98 L 105.527344 98.242188 L 105.71875 98.578125 L 105.480469 98.625 L 105 99.679688 L 104.519531 99.777344 L 104.519531 99.824219 L 104.808594 100.015625 C 104.710938 100.0625 104.566406 100.0625 104.472656 100.113281 C 104.375 100.113281 104.230469 100.0625 104.136719 100.113281 C 104.089844 100.113281 104.039062 100.160156 103.992188 100.207031 C 103.992188 100.207031 104.039062 100.304688 104.089844 100.351562 C 104.136719 100.398438 104.183594 100.304688 104.183594 100.304688 L 104.375 100.253906 C 104.375 100.304688 104.328125 100.351562 104.375 100.398438 C 104.519531 100.640625 104.375 100.734375 104.136719 100.878906 C 104.089844 100.925781 104.039062 101.070312 104.039062 101.167969 L 103.894531 101.121094 L 103.417969 101.597656 L 103.226562 101.503906 L 103.175781 101.839844 L 102.984375 101.597656 C 102.746094 101.839844 103.082031 101.886719 103.082031 102.03125 L 103.082031 101.789062 L 103.273438 102.125 L 102.601562 103.039062 L 102.503906 102.847656 C 102.503906 102.941406 102.503906 103.039062 102.503906 103.132812 C 102.503906 103.230469 102.554688 103.324219 102.554688 103.375 L 102.265625 103.375 L 102.3125 103.421875 C 102.21875 103.46875 102.121094 103.566406 101.976562 103.613281 C 101.882812 103.613281 101.738281 103.566406 101.738281 103.613281 C 101.691406 103.710938 101.691406 103.804688 101.691406 103.949219 L 102.023438 103.851562 C 101.882812 104.1875 101.738281 104.429688 101.59375 104.71875 L 101.546875 104.667969 L 101.546875 104.382812 L 101.496094 104.332031 C 101.449219 104.382812 101.402344 104.429688 101.402344 104.476562 C 101.402344 104.667969 101.257812 104.8125 101.160156 104.957031 C 101.066406 105.101562 100.777344 105.195312 100.777344 105.484375 C 100.777344 105.582031 100.632812 105.722656 100.585938 105.820312 L 100.394531 105.582031 L 100.203125 105.773438 C 100.25 105.867188 100.296875 106.011719 100.296875 106.011719 C 100.15625 106.109375 100.058594 106.347656 99.820312 106.25 C 99.820312 106.25 99.769531 106.25 99.722656 106.25 C 99.339844 106.203125 99.484375 106.492188 99.484375 106.683594 C 99.53125 106.921875 99.386719 107.164062 99.148438 107.257812 L 98.90625 107.019531 L 98.90625 107.546875 L 98.621094 107.355469 L 98.667969 107.882812 L 98.425781 107.882812 C 98.332031 108.121094 98.1875 108.363281 98.042969 108.554688 C 97.996094 108.601562 97.804688 108.554688 97.5625 108.554688 C 97.46875 108.648438 97.5625 108.746094 97.757812 108.9375 L 97.515625 108.984375 C 97.46875 109.082031 97.371094 109.128906 97.324219 109.226562 C 97.179688 109.464844 96.988281 109.609375 96.75 109.609375 C 96.699219 109.753906 96.699219 109.898438 96.652344 109.992188 L 96.269531 109.898438 C 96.078125 109.945312 95.980469 110.042969 96.078125 110.328125 C 96.125 110.570312 96.027344 110.761719 95.835938 110.855469 C 95.691406 110.953125 95.453125 110.953125 95.355469 111.046875 C 95.261719 111.144531 95.117188 111.242188 94.972656 111.335938 C 94.6875 111.527344 94.445312 111.769531 94.15625 112.007812 C 94.109375 112.054688 94.0625 112.152344 93.964844 112.152344 C 93.871094 112.199219 93.773438 112.199219 93.679688 112.199219 C 93.628906 112.199219 93.535156 112.152344 93.488281 112.152344 C 93.4375 112.152344 93.246094 112.152344 93.152344 112.105469 C 93.101562 112.199219 93.101562 112.390625 93.054688 112.535156 C 93.054688 112.582031 92.957031 112.582031 92.910156 112.632812 C 92.863281 112.679688 92.71875 112.679688 92.71875 112.777344 C 92.671875 112.96875 92.527344 112.96875 92.335938 112.96875 C 92.144531 112.96875 91.902344 112.96875 91.664062 113.015625 L 91.617188 112.917969 L 91.855469 112.777344 L 91.617188 112.632812 L 91.472656 113.160156 L 91.230469 112.96875 L 91.183594 113.445312 C 91.136719 113.445312 91.136719 113.445312 90.992188 112.871094 C 90.894531 112.96875 90.65625 112.871094 90.703125 113.160156 C 90.703125 113.253906 90.703125 113.398438 90.753906 113.496094 C 90.800781 113.589844 90.945312 113.6875 91.039062 113.78125 C 90.894531 113.734375 90.800781 113.6875 90.753906 113.878906 C 90.703125 114.070312 90.320312 114.167969 90.222656 114.023438 C 90.175781 113.976562 90.222656 113.832031 90.222656 113.6875 C 90.273438 113.542969 90.320312 113.445312 90.367188 113.351562 L 90.222656 113.445312 L 90.175781 113.113281 L 90.03125 113.253906 L 90.128906 113.589844 L 89.886719 113.640625 L 89.839844 113.976562 L 89.746094 114.023438 L 89.359375 113.542969 L 89.792969 113.445312 C 89.550781 113.304688 89.410156 113.207031 89.21875 113.113281 C 88.929688 112.917969 88.738281 112.582031 88.6875 112.246094 C 88.6875 112.199219 88.6875 112.152344 88.6875 112.152344 C 88.402344 112.054688 88.402344 111.625 88.160156 111.480469 L 88.210938 111.382812 L 87.730469 111.046875 L 87.921875 110.90625 C 87.683594 110.617188 87.441406 110.328125 87.203125 110.089844 C 87.152344 110.042969 87.152344 109.898438 87.152344 109.898438 C 87.25 109.847656 87.296875 109.800781 87.394531 109.800781 L 87.25 109.609375 C 87.152344 109.800781 87.011719 109.800781 86.867188 109.65625 C 86.722656 109.515625 86.578125 109.273438 86.53125 109.082031 C 86.484375 108.84375 86.386719 108.84375 86.195312 108.792969 L 86.195312 108.265625 C 86.242188 108.074219 86.289062 107.929688 86.339844 107.738281 C 86.339844 107.644531 86.242188 107.546875 86.242188 107.5 L 86.484375 107.308594 L 86.386719 107.210938 C 86.242188 107.164062 86.097656 107.117188 85.953125 107.066406 C 85.90625 107.066406 85.859375 107.117188 85.761719 107.164062 L 85.8125 107.257812 L 85.953125 107.164062 L 86.003906 107.210938 L 85.90625 107.402344 C 85.859375 107.355469 85.8125 107.308594 85.761719 107.308594 C 85.476562 107.210938 85.476562 106.921875 85.332031 106.78125 C 85.089844 106.539062 85.042969 106.15625 84.707031 105.964844 L 84.753906 105.917969 L 85.234375 106.011719 L 84.851562 105.484375 C 84.707031 105.722656 84.613281 105.53125 84.515625 105.4375 C 84.226562 105.101562 84.132812 104.8125 84.324219 104.621094 L 83.890625 104.285156 C 83.84375 104.046875 83.84375 103.757812 83.699219 103.613281 C 83.460938 103.421875 83.554688 103.230469 83.554688 102.941406 L 83.75 103.085938 C 83.84375 102.796875 83.75 102.703125 83.460938 102.703125 C 83.171875 102.703125 82.980469 102.605469 82.933594 102.320312 C 82.933594 102.222656 82.933594 102.078125 82.882812 101.933594 L 83.125 101.933594 L 83.125 101.839844 L 82.597656 101.839844 L 82.644531 101.453125 C 82.453125 101.503906 82.355469 101.40625 82.355469 101.167969 C 82.355469 100.925781 82.214844 100.785156 82.164062 100.542969 C 82.214844 100.589844 82.261719 100.640625 82.308594 100.6875 C 82.355469 100.734375 82.453125 100.785156 82.5 100.785156 C 82.597656 100.734375 82.644531 100.6875 82.691406 100.589844 C 82.691406 100.542969 82.691406 100.449219 82.691406 100.351562 C 82.453125 100.449219 82.214844 100.640625 82.070312 100.253906 C 82.070312 100.207031 81.878906 100.253906 81.828125 100.207031 C 81.734375 100.0625 81.636719 99.871094 81.542969 99.679688 C 81.492188 99.535156 81.445312 99.390625 81.347656 99.199219 C 81.253906 99.054688 81.15625 98.816406 81.253906 98.578125 C 81.300781 98.433594 81.253906 98.289062 81.15625 98.242188 C 81.15625 98.242188 81.109375 98.242188 81.109375 98.242188 C 80.820312 98.191406 80.773438 98 80.726562 97.855469 C 80.628906 97.714844 80.582031 97.523438 80.535156 97.328125 C 80.535156 97.28125 80.582031 97.234375 80.628906 97.136719 C 80.199219 97.136719 80.246094 96.707031 80.148438 96.464844 C 80.007812 96.082031 80.007812 96.035156 80.148438 95.9375 L 80.34375 95.792969 C 80.199219 95.699219 80.054688 95.601562 79.910156 95.457031 C 79.863281 95.410156 79.910156 95.316406 79.910156 95.21875 L 79.71875 95.457031 C 79.671875 95.316406 79.621094 95.125 79.574219 94.980469 C 79.574219 94.929688 79.671875 94.835938 79.71875 94.738281 L 79.863281 95.027344 L 80.007812 94.835938 L 79.765625 94.644531 C 79.527344 94.835938 79.527344 94.644531 79.527344 94.453125 C 79.527344 94.402344 79.527344 94.355469 79.527344 94.355469 C 79.238281 94.308594 79.429688 94.164062 79.480469 94.019531 C 79.144531 93.78125 79.046875 93.445312 79.285156 93.203125 L 79.09375 92.726562 L 79.144531 92.675781 L 79.335938 92.820312 C 79.335938 92.339844 79.621094 92.917969 79.71875 92.675781 L 79.429688 92.246094 L 79.191406 92.390625 C 79.09375 92.339844 78.949219 92.148438 79 92.101562 C 79.191406 91.8125 78.949219 91.859375 78.808594 91.859375 L 78.808594 90.902344 L 79.285156 90.949219 L 79.285156 90.855469 C 79.144531 90.855469 78.949219 90.855469 78.855469 90.804688 C 78.710938 90.660156 78.613281 90.519531 78.566406 90.328125 C 78.519531 90.277344 78.519531 90.183594 78.566406 90.085938 L 78.808594 89.558594 L 78.613281 89.605469 L 78.855469 89.269531 L 78.519531 89.269531 C 78.472656 89.078125 78.472656 88.933594 78.472656 88.742188 C 78.472656 88.695312 78.613281 88.597656 78.664062 88.550781 C 78.710938 88.503906 78.757812 88.457031 78.757812 88.40625 L 78.566406 88.3125 C 78.375 88.121094 78.375 87.832031 78.566406 87.640625 C 78.710938 87.59375 78.757812 87.542969 78.808594 87.542969 C 78.472656 87.351562 78.472656 87.351562 78.710938 87.113281 C 78.519531 86.777344 78.519531 86.535156 78.710938 86.34375 C 78.710938 86.34375 78.757812 86.34375 78.757812 86.394531 C 78.757812 86.441406 78.757812 86.535156 78.808594 86.632812 C 78.855469 86.585938 78.855469 86.585938 78.902344 86.535156 C 78.902344 86.488281 78.902344 86.441406 78.902344 86.441406 C 78.855469 86.296875 78.949219 86.105469 78.757812 86.105469 C 78.757812 86.105469 78.664062 86.007812 78.710938 85.960938 C 78.808594 85.625 78.710938 85.144531 79 84.808594 C 79.046875 84.761719 79.09375 84.714844 79.144531 84.714844 L 79 84.617188 C 79.285156 84.425781 78.855469 84.042969 79.238281 83.851562 L 79.238281 84.136719 L 79.621094 84.042969 L 79.480469 83.851562 L 79.335938 83.945312 C 79.335938 83.898438 79.285156 83.851562 79.285156 83.851562 C 79.191406 83.800781 79.09375 83.753906 79.046875 83.660156 C 79 83.5625 79.09375 83.464844 79.144531 83.371094 C 79.144531 83.324219 79.09375 83.324219 79.09375 83.273438 C 79.238281 83.179688 79.527344 83.082031 79.191406 82.84375 L 79.480469 82.796875 C 79.191406 82.410156 79.71875 82.125 79.621094 81.835938 C 79.765625 81.738281 79.910156 81.597656 80.007812 81.453125 C 80.101562 81.453125 79.957031 81.308594 79.863281 81.164062 L 80.679688 79.726562 L 81.0625 79.726562 L 81.0625 79.628906 L 80.726562 79.484375 L 81.347656 78.863281 C 81.398438 78.957031 81.492188 79.003906 81.636719 79.101562 C 81.683594 79.101562 81.78125 79.054688 81.828125 78.957031 L 81.589844 79.003906 C 81.589844 78.863281 81.589844 78.71875 81.636719 78.574219 C 81.636719 78.527344 81.734375 78.476562 81.78125 78.429688 C 81.828125 78.382812 82.019531 78.285156 82.117188 78.238281 C 82.214844 78.191406 82.355469 78 82.546875 77.855469 C 82.597656 78.09375 82.597656 78.335938 82.882812 78.140625 C 82.933594 78.140625 82.933594 78.140625 82.980469 78.09375 C 83.027344 78.191406 83.078125 78.238281 83.171875 78.140625 C 83.269531 78.046875 83.027344 78.046875 82.980469 78 C 82.933594 77.949219 83.027344 77.613281 83.125 77.613281 C 83.363281 77.613281 83.605469 77.566406 83.796875 77.421875 C 83.988281 77.375 84.179688 77.328125 84.371094 77.328125 C 84.371094 77.328125 84.417969 77.328125 84.417969 77.328125 C 84.707031 77.039062 85.089844 77.183594 85.378906 77.039062 C 85.523438 76.992188 85.714844 76.992188 85.859375 77.039062 L 85.859375 77.230469 C 85.90625 77.183594 85.953125 77.183594 86.003906 77.183594 C 86.195312 77.183594 86.386719 77.183594 86.578125 77.183594 C 86.578125 77.183594 86.625 77.328125 86.625 77.421875 L 86.914062 77.375 L 86.675781 77.902344 L 87.058594 78.285156 L 87.105469 78.238281 L 87.058594 78.046875 C 87.203125 77.949219 87.296875 77.855469 87.441406 77.804688 C 87.394531 77.710938 87.347656 77.613281 87.25 77.519531 L 87.488281 77.710938 L 87.921875 77.519531 C 87.96875 77.566406 87.96875 77.664062 88.015625 77.710938 C 88.351562 77.949219 88.351562 77.949219 88.113281 78.09375 C 88.160156 78.285156 88.351562 78.335938 88.546875 78.285156 C 88.546875 78.285156 88.59375 78.285156 88.59375 78.285156 C 88.882812 78.140625 88.832031 78.382812 88.882812 78.574219 L 89.023438 78.140625 L 89.074219 78.429688 C 89.167969 78.429688 89.359375 78.238281 89.21875 78.527344 L 89.648438 78.429688 L 89.648438 78.71875 L 89.9375 78.71875 C 89.9375 78.863281 89.984375 78.957031 90.03125 79.101562 C 90.03125 79.148438 90.175781 79.101562 90.273438 79.101562 L 90.609375 79.582031 L 90.703125 79.484375 L 90.65625 79.867188 C 90.800781 79.867188 90.945312 79.820312 90.992188 79.867188 C 91.039062 79.964844 91.039062 80.0625 91.039062 80.15625 C 91.136719 80.253906 91.183594 80.347656 91.28125 80.398438 C 91.421875 80.492188 91.664062 80.539062 91.710938 80.734375 C 91.757812 80.925781 91.902344 81.210938 92 81.453125 C 92 81.453125 91.902344 81.546875 91.902344 81.5 C 91.808594 81.453125 91.757812 81.402344 91.664062 81.308594 C 91.472656 81.5 91.472656 81.5 91.757812 81.691406 L 91.664062 81.789062 L 91.953125 81.882812 C 92 82.21875 92.046875 82.265625 92.429688 82.21875 C 92.480469 82.21875 92.527344 82.265625 92.574219 82.265625 C 92.621094 82.460938 92.671875 82.601562 92.765625 82.84375 C 93.054688 82.9375 93.152344 83.082031 93.054688 83.371094 C 93.054688 83.417969 92.957031 83.464844 92.910156 83.515625 L 92.863281 83.464844 L 92.863281 83.753906 L 93.292969 83.515625 L 93.535156 84.089844 L 93.679688 84.042969 C 93.628906 84.234375 93.679688 84.425781 93.917969 84.472656 C 94.0625 84.523438 94.15625 84.664062 94.300781 84.761719 C 94.398438 84.90625 94.542969 85.050781 94.6875 85.144531 C 94.972656 85.289062 95.164062 85.625 95.070312 85.960938 C 95.019531 86.058594 95.070312 86.199219 95.117188 86.296875 C 95.5 86.679688 95.550781 86.871094 95.308594 87.398438 C 95.453125 87.398438 95.644531 87.542969 95.644531 87.207031 C 95.644531 87.0625 95.789062 86.921875 95.835938 86.777344 C 95.886719 86.632812 95.933594 86.585938 95.933594 86.488281 L 96.363281 86.585938 L 95.980469 86.105469 C 96.027344 86.007812 96.269531 86.007812 96.125 85.816406 L 96.414062 85.671875 L 96.414062 86.105469 C 96.507812 86.058594 96.605469 85.960938 96.699219 85.914062 C 96.699219 85.914062 96.605469 85.816406 96.554688 85.671875 L 96.84375 85.671875 L 96.84375 85.578125 L 97.421875 85.671875 C 97.324219 85.195312 96.988281 85.480469 96.75 85.386719 C 96.941406 85.097656 97.085938 85.050781 97.371094 85.242188 L 97.421875 84.808594 L 97.707031 85 L 97.613281 84.664062 C 97.757812 84.664062 97.898438 84.664062 98.042969 84.664062 C 98.042969 84.664062 98.089844 84.570312 98.089844 84.523438 L 98.234375 84.617188 C 98.1875 84.28125 98.425781 84.332031 98.621094 84.1875 C 98.570312 84.425781 98.667969 84.617188 98.859375 84.617188 C 98.957031 84.617188 99.050781 84.523438 99.097656 84.425781 L 98.667969 84.28125 L 99.003906 83.945312 C 99.242188 83.707031 99.386719 83.945312 99.578125 84.042969 C 99.578125 84.042969 99.578125 84.1875 99.578125 84.28125 L 99.722656 84.332031 L 99.675781 84.523438 L 99.722656 84.523438 C 99.769531 84.472656 99.769531 84.425781 99.820312 84.378906 C 99.820312 84.332031 99.820312 84.28125 99.867188 84.234375 C 100.058594 84.136719 100.058594 84.136719 99.867188 83.945312 C 99.820312 83.851562 99.769531 83.707031 99.820312 83.609375 C 99.820312 83.5625 100.011719 83.5625 100.105469 83.515625 C 100.203125 83.464844 100.347656 83.5625 100.394531 83.515625 C 100.730469 83.132812 101.113281 83.371094 101.496094 83.417969 L 101.546875 83.226562 C 101.546875 83.226562 101.59375 83.226562 101.640625 83.273438 C 101.738281 83.324219 101.832031 83.371094 101.929688 83.324219 C 101.976562 83.324219 102.074219 83.371094 102.074219 83.417969 C 102.023438 83.5625 102.023438 83.707031 101.976562 83.851562 L 102.167969 83.753906 L 102.359375 84.136719 L 102.457031 84.089844 C 102.359375 83.851562 102.3125 83.660156 102.265625 83.417969 C 102.265625 83.324219 102.265625 83.226562 102.359375 83.132812 C 102.410156 83.082031 102.554688 83.132812 102.601562 83.179688 C 102.839844 83.226562 103.128906 83.179688 103.320312 83.035156 L 104.136719 83.082031 L 104.136719 83.132812 L 104.28125 82.9375 L 104.519531 83.132812 L 104.566406 83.082031 L 104.425781 82.890625 L 104.472656 82.84375 L 104.808594 83.035156 L 104.855469 82.84375 C 105.144531 82.890625 105.429688 82.9375 105.71875 82.9375 C 105.863281 82.9375 105.960938 82.9375 105.960938 83.132812 C 105.960938 83.324219 106.101562 83.609375 105.671875 83.464844 L 105.671875 83.707031 L 105.910156 83.898438 L 106.4375 83.660156 L 106.4375 83.707031 L 106.007812 83.707031 L 106.199219 83.226562 L 106.292969 83.226562 L 106.390625 83.464844 L 106.679688 83.273438 L 106.679688 83.515625 C 106.917969 83.464844 107.207031 83.324219 107.398438 83.609375 C 107.589844 83.898438 107.925781 83.996094 108.023438 84.332031 C 108.023438 84.378906 108.164062 84.378906 108.214844 84.523438 L 107.78125 84.570312 C 107.734375 84.570312 107.6875 84.617188 107.636719 84.617188 C 107.6875 84.664062 107.734375 84.714844 107.78125 84.761719 C 107.878906 84.761719 107.972656 84.808594 108.070312 84.808594 L 108.023438 85.097656 L 108.261719 84.664062 L 108.261719 85.050781 C 108.453125 85.050781 108.597656 85.289062 108.597656 85.625 L 108.214844 85.578125 L 108.164062 85.625 L 108.261719 85.722656 C 108.359375 85.816406 108.5 85.914062 108.453125 86.152344 C 108.453125 86.199219 108.550781 86.34375 108.644531 86.394531 C 108.886719 86.488281 108.886719 86.679688 108.835938 86.921875 C 108.835938 87.0625 108.835938 87.207031 108.886719 87.398438 C 108.644531 87.449219 108.644531 87.449219 108.742188 87.640625 C 108.742188 87.6875 108.695312 87.734375 108.644531 87.785156 L 109.027344 87.785156 C 109.125 88.023438 108.550781 88.261719 109.078125 88.503906 L 108.742188 88.648438 L 108.550781 88.40625 C 108.261719 88.648438 108.308594 88.839844 108.644531 89.269531 C 108.789062 89.460938 108.886719 89.703125 108.835938 89.992188 C 108.835938 90.085938 108.886719 90.183594 108.835938 90.277344 C 108.835938 90.566406 108.695312 90.855469 108.453125 91.046875 C 108.308594 90.660156 107.972656 90.855469 107.734375 90.855469 Z M 92.046875 112.34375 L 92.382812 112.246094 C 92.480469 112.535156 92.480469 112.535156 92.621094 112.441406 C 92.429688 112.199219 92.285156 111.914062 91.953125 112.152344 L 91.617188 111.914062 L 91.617188 112.246094 C 91.757812 112.246094 91.953125 112.152344 91.953125 112.390625 L 92 112.441406 Z M 85.523438 104.667969 C 85.523438 104.765625 85.523438 104.8125 85.570312 104.910156 C 85.570312 105.003906 85.570312 105.050781 85.617188 105.148438 C 85.714844 105.246094 85.8125 105.339844 85.90625 105.386719 L 85.667969 104.71875 C 85.859375 104.859375 86.003906 105.101562 86.339844 104.910156 L 86.050781 104.8125 L 86.386719 104.574219 L 86.386719 105.003906 L 86.433594 105.003906 L 86.53125 104.667969 L 86.484375 104.667969 L 86.675781 104.574219 C 86.195312 104.621094 85.953125 104.285156 85.617188 104.09375 C 85.617188 104.332031 85.523438 104.429688 85.28125 104.285156 C 85.234375 104.285156 85.1875 104.285156 85.1875 104.285156 C 85.476562 104.140625 85.332031 103.902344 85.28125 103.710938 C 85.1875 103.757812 85.089844 103.902344 85.042969 103.851562 C 84.707031 103.804688 84.707031 104.046875 84.5625 104.332031 L 84.851562 104.140625 C 84.851562 104.1875 84.898438 104.238281 84.898438 104.285156 C 84.898438 104.332031 84.804688 104.382812 84.707031 104.382812 L 84.949219 104.476562 L 84.851562 104.667969 L 84.949219 104.71875 C 84.996094 104.621094 84.996094 104.523438 85.042969 104.476562 C 85.089844 104.429688 84.996094 104.1875 85.1875 104.285156 L 85.476562 104.621094 C 85.28125 104.667969 84.996094 104.574219 84.996094 104.957031 L 84.707031 104.765625 C 84.707031 104.859375 84.753906 105.003906 84.804688 105.101562 C 84.949219 105.101562 85.140625 105.050781 85.28125 105.003906 L 85.332031 105.148438 Z M 81.636719 96.800781 L 81.589844 96.609375 C 81.398438 96.65625 81.398438 96.65625 81.253906 96.464844 C 81.207031 96.417969 81.0625 96.417969 80.917969 96.417969 C 80.917969 96.464844 80.917969 96.5625 80.917969 96.609375 C 80.964844 96.753906 81.015625 96.898438 81.0625 96.992188 L 81.542969 96.898438 C 81.589844 97.1875 81.734375 97.089844 81.925781 97.042969 C 81.925781 97.089844 81.925781 97.136719 81.925781 97.136719 C 81.925781 97.234375 81.925781 97.28125 81.925781 97.378906 C 82.019531 97.328125 82.070312 97.328125 82.164062 97.28125 C 82.214844 97.234375 82.261719 97.234375 82.308594 97.1875 Z M 89.167969 78.957031 C 89.121094 79.054688 89.074219 79.148438 89.074219 79.246094 C 89.074219 79.4375 89.121094 79.582031 89.167969 79.820312 C 89.265625 79.867188 89.3125 79.867188 89.359375 79.867188 C 89.503906 79.867188 89.648438 79.820312 89.746094 79.773438 C 89.746094 79.773438 89.695312 79.628906 89.695312 79.535156 C 89.695312 79.4375 89.746094 79.484375 89.792969 79.4375 L 89.503906 79.390625 C 89.601562 79.003906 89.265625 78.957031 89.023438 78.765625 Z M 88.785156 80.0625 L 88.832031 80.011719 C 88.785156 79.964844 88.738281 79.917969 88.6875 79.867188 C 88.6875 79.820312 88.6875 79.726562 88.6875 79.675781 L 88.929688 79.628906 L 88.351562 79.535156 L 88.402344 79.148438 C 88.066406 79.484375 87.824219 79.148438 87.585938 79.054688 L 87.539062 79.101562 L 87.824219 79.339844 L 87.632812 79.484375 L 87.632812 79.582031 L 87.96875 79.582031 C 88.015625 79.582031 88.066406 79.582031 88.160156 79.582031 C 88.257812 79.628906 88.402344 79.628906 88.496094 79.675781 C 88.546875 79.726562 88.59375 79.773438 88.640625 79.820312 Z M 88.304688 85.097656 L 87.777344 85.097656 L 87.683594 85.335938 L 87.441406 85.097656 L 87.296875 85.386719 L 87.585938 85.53125 L 88.351562 85.242188 L 88.640625 85.386719 L 88.6875 85.335938 L 88.351562 84.953125 Z M 88.449219 108.457031 C 88.402344 108.363281 88.351562 108.265625 88.257812 108.21875 C 88.015625 108.171875 87.777344 108.21875 87.632812 108.410156 C 87.824219 108.507812 88.066406 108.554688 88.257812 108.554688 C 88.546875 108.554688 88.59375 108.792969 88.738281 108.9375 C 88.738281 108.792969 88.738281 108.601562 88.640625 108.457031 C 88.640625 108.507812 88.546875 108.507812 88.449219 108.457031 Z M 85.953125 78.09375 C 85.8125 78.429688 85.8125 78.429688 86.097656 78.667969 L 86.097656 78.910156 L 86.339844 78.667969 L 86.195312 78.429688 L 86.433594 78.140625 Z M 89.503906 97.617188 C 89.265625 97.617188 89.121094 98.050781 88.929688 97.617188 C 88.882812 97.664062 88.882812 97.714844 88.832031 97.761719 C 88.976562 97.855469 89.167969 98 89.359375 98.097656 L 89.3125 98.242188 L 89.839844 98.289062 C 89.648438 98 89.648438 98 89.410156 98.097656 Z M 83.75 101.453125 L 83.699219 101.453125 L 83.796875 101.933594 L 84.226562 102.269531 L 84.371094 101.933594 L 84.035156 101.886719 L 84.035156 101.789062 L 84.226562 101.789062 C 84.515625 101.550781 84.324219 101.3125 84.324219 101.023438 L 84.132812 101.214844 L 84.371094 101.453125 L 83.941406 101.695312 Z M 88.59375 86.730469 L 88.640625 86.871094 C 88.738281 86.824219 88.832031 86.824219 88.929688 86.777344 C 88.976562 86.777344 89.023438 86.777344 89.023438 86.824219 C 89.023438 86.871094 89.023438 86.921875 89.023438 86.921875 C 88.976562 87.015625 88.929688 87.113281 88.882812 87.257812 L 88.976562 87.304688 L 89.21875 86.824219 L 89.3125 87.160156 L 89.359375 87.160156 C 89.410156 87.0625 89.457031 86.96875 89.457031 86.871094 C 89.457031 86.871094 89.3125 86.824219 89.265625 86.777344 C 89.21875 86.730469 89.074219 86.585938 88.976562 86.535156 L 88.976562 86.441406 Z M 86.722656 79.292969 C 86.960938 79.582031 87.105469 79.4375 87.296875 79.339844 L 87.152344 79.054688 L 87.488281 79.003906 C 87.105469 78.71875 86.914062 78.71875 86.675781 78.910156 L 87.105469 79.339844 Z M 86.960938 106.445312 L 86.914062 106.492188 L 87.011719 106.636719 L 86.675781 106.875 C 86.867188 107.066406 87.011719 107.117188 87.011719 106.78125 C 87.203125 106.972656 87.347656 106.972656 87.488281 106.683594 Z M 88.210938 109.273438 L 88.449219 109.609375 L 88.546875 109.5625 L 88.449219 109.371094 L 88.640625 109.273438 L 87.875 108.9375 L 87.96875 109.417969 C 87.921875 109.417969 87.921875 109.417969 87.875 109.417969 L 87.683594 109.464844 C 87.683594 109.515625 87.730469 109.5625 87.730469 109.5625 C 87.777344 109.5625 87.824219 109.5625 87.875 109.515625 C 87.921875 109.464844 87.96875 109.417969 88.066406 109.371094 Z M 84.277344 103.566406 L 84.515625 103.804688 L 84.515625 103.46875 L 84.660156 103.757812 L 84.707031 103.710938 L 84.417969 103.375 L 83.941406 103.519531 C 83.988281 103.566406 83.988281 103.613281 84.035156 103.660156 C 84.035156 103.710938 84.082031 103.804688 84.082031 103.902344 Z M 96.027344 104.667969 L 96.027344 104.8125 L 96.84375 104.667969 L 96.941406 104.859375 C 96.941406 104.574219 96.941406 104.574219 96.605469 104.382812 L 96.554688 104.523438 Z M 83.988281 101.121094 C 83.652344 100.878906 83.460938 100.449219 83.027344 100.640625 L 83.027344 100.734375 L 83.652344 100.832031 L 83.316406 101.121094 Z M 104.808594 90.996094 L 104.761719 91.09375 C 104.855469 91.191406 105 91.285156 105.09375 91.332031 C 105.238281 91.382812 105.09375 91.71875 105.289062 91.476562 L 105.429688 91.191406 Z M 87.347656 83.898438 L 87.203125 84.136719 C 87.25 84.1875 87.347656 84.1875 87.441406 84.234375 C 87.488281 84.234375 87.632812 84.28125 87.683594 84.28125 C 87.777344 84.1875 87.824219 84.089844 87.875 83.996094 C 87.875 83.996094 87.824219 83.945312 87.824219 83.945312 C 87.632812 83.898438 87.488281 83.898438 87.347656 83.898438 Z M 104.953125 89.511719 L 105.191406 89.992188 L 105.191406 89.558594 L 105.289062 89.75 L 105.382812 89.75 L 105.480469 89.128906 L 105.382812 89.078125 L 105.289062 89.460938 L 104.953125 89.460938 Z M 97.132812 103.660156 L 96.941406 104.1875 C 97.035156 104.1875 97.179688 104.140625 97.179688 104.140625 C 97.179688 103.902344 97.515625 103.851562 97.5625 103.613281 Z M 105 83.273438 L 104.425781 83.324219 L 105.144531 83.800781 Z M 92.191406 85.960938 C 92.382812 85.769531 92.574219 85.625 92.285156 85.242188 L 92.191406 85.578125 L 91.902344 85.53125 Z M 81.972656 98.097656 L 82.355469 98.242188 L 82.308594 98 L 82.546875 98.097656 L 82.597656 98 L 82.164062 97.714844 Z M 96.507812 88.457031 L 96.460938 88.457031 L 96.414062 88.121094 L 96.222656 88.121094 C 96.269531 88.214844 96.316406 88.3125 96.363281 88.40625 C 96.414062 88.457031 96.507812 88.550781 96.605469 88.597656 C 96.652344 88.550781 96.699219 88.457031 96.699219 88.40625 C 96.699219 88.261719 96.699219 88.121094 96.699219 87.976562 L 96.652344 87.976562 Z M 80.101562 83.515625 L 80.007812 83.945312 L 80.101562 83.996094 L 80.199219 83.707031 C 80.34375 83.996094 80.484375 84.042969 80.726562 83.898438 Z M 90.128906 80.589844 C 90.464844 80.539062 90.417969 80.78125 90.511719 81.019531 C 90.609375 80.925781 90.753906 80.875 90.703125 80.828125 C 90.65625 80.78125 90.609375 80.683594 90.558594 80.589844 C 90.511719 80.539062 90.464844 80.445312 90.417969 80.347656 Z M 79.863281 88.839844 L 79.910156 88.792969 L 79.480469 88.40625 L 79.382812 88.742188 Z M 82.691406 98.578125 L 83.316406 99.199219 L 83.414062 99.152344 C 83.363281 99.054688 83.363281 98.863281 83.269531 98.816406 C 83.078125 98.769531 82.933594 98.480469 82.691406 98.578125 Z M 96.363281 105.917969 L 96.363281 105.820312 L 95.980469 105.675781 C 95.980469 105.820312 95.742188 105.917969 95.886719 106.109375 Z M 99.675781 104.957031 L 100.25 105.582031 C 100.25 105.386719 100.296875 105.246094 100.25 105.195312 C 100.105469 105.101562 99.960938 105.003906 99.820312 104.957031 C 99.769531 104.957031 99.722656 104.957031 99.675781 104.957031 Z M 90.894531 86.152344 L 90.894531 86.25 L 91.617188 86.535156 L 91.472656 86.152344 C 91.328125 86.296875 91.183594 86.34375 91.085938 86.105469 C 91.085938 86.105469 90.945312 86.152344 90.894531 86.152344 Z M 104.664062 97.855469 C 104.664062 97.90625 104.617188 98 104.664062 98.097656 C 104.710938 98.191406 104.808594 98.242188 104.902344 98.289062 C 104.953125 98.289062 105 98.191406 105.09375 98.144531 C 105.046875 98.050781 105 98 104.902344 97.953125 C 104.808594 97.90625 104.710938 97.855469 104.664062 97.855469 Z M 94.878906 108.171875 L 94.492188 107.835938 L 94.015625 108.121094 Z M 87.730469 93.492188 L 87.347656 93.972656 L 87.394531 94.066406 L 87.730469 94.019531 Z M 84.804688 77.136719 L 84.753906 77.566406 L 85.089844 77.613281 L 85.042969 77.136719 Z M 89.9375 84.90625 L 90.03125 84.953125 L 90.367188 84.425781 L 90.273438 84.378906 C 90.175781 84.472656 90.128906 84.617188 90.03125 84.617188 C 89.695312 84.617188 89.9375 84.808594 89.9375 84.90625 Z M 103.894531 100.015625 L 103.847656 99.921875 L 103.273438 100.351562 L 103.753906 100.398438 L 103.753906 100.304688 L 103.609375 100.253906 Z M 96.699219 109.226562 L 96.414062 109.371094 L 96.414062 109.464844 C 96.796875 109.515625 96.75 109.226562 96.796875 108.890625 L 96.414062 109.128906 Z M 95.933594 87.160156 C 95.835938 87.542969 96.027344 87.640625 96.363281 87.6875 L 96.222656 87.351562 C 95.980469 87.496094 96.027344 87.257812 95.933594 87.160156 Z M 83.941406 79.867188 L 83.75 80.15625 L 84.226562 79.964844 L 83.554688 79.628906 C 83.605469 79.773438 83.554688 79.964844 83.941406 79.867188 Z M 91.421875 110.425781 L 91.710938 110.328125 C 91.757812 110.328125 91.808594 110.328125 91.808594 110.328125 C 91.808594 110.328125 91.808594 110.234375 91.808594 110.234375 C 91.710938 110.183594 91.566406 110.089844 91.472656 110.042969 Z M 89.984375 86.632812 L 90.175781 86.199219 L 89.550781 86.34375 Z M 88.640625 111.335938 L 88.6875 111.242188 C 88.546875 111.097656 88.351562 111 88.210938 110.855469 C 88.210938 110.855469 88.113281 110.953125 88.015625 111 Z M 99.242188 84.714844 L 99.003906 84.664062 C 99.050781 84.859375 99.097656 85.050781 99.097656 85.289062 L 99.289062 85.144531 L 99.195312 85.144531 Z M 82.070312 95.9375 C 82.070312 95.84375 82.070312 95.792969 82.070312 95.746094 C 82.070312 95.507812 81.78125 95.652344 81.734375 95.507812 C 81.734375 95.507812 81.683594 95.554688 81.683594 95.601562 C 81.734375 95.699219 81.828125 95.792969 81.878906 95.9375 C 81.925781 95.988281 81.972656 95.9375 82.070312 95.9375 Z M 83.988281 82.125 C 84.035156 82.125 84.082031 82.074219 84.082031 82.074219 L 84.179688 81.980469 C 84.132812 81.933594 84.082031 81.882812 83.988281 81.835938 C 83.941406 81.835938 83.890625 81.835938 83.84375 81.835938 L 83.941406 82.410156 L 84.132812 82.21875 Z M 98.621094 106.78125 L 98.140625 106.636719 L 98.332031 107.019531 L 98.378906 106.972656 L 98.761719 107.066406 Z M 89.074219 83.996094 L 89.023438 84.089844 L 89.601562 84.523438 L 89.695312 84.425781 Z M 97.949219 108.027344 L 97.996094 108.074219 L 97.898438 108.265625 L 97.996094 108.363281 L 98.285156 107.882812 C 98.140625 107.882812 97.996094 107.929688 97.851562 107.980469 C 97.757812 108.027344 97.757812 108.121094 97.660156 108.171875 L 97.757812 108.21875 Z M 82.691406 84.332031 C 82.691406 84.234375 82.644531 84.089844 82.597656 83.996094 C 82.597656 83.945312 82.5 83.945312 82.453125 83.898438 C 82.40625 83.851562 82.453125 83.996094 82.453125 84.042969 C 82.453125 84.089844 82.546875 84.089844 82.597656 84.089844 L 82.546875 84.1875 L 82.355469 84.1875 L 82.453125 84.425781 Z M 88.449219 110.042969 L 88.402344 110.328125 L 88.6875 110.089844 L 88.449219 110.042969 L 88.785156 109.847656 L 88.785156 109.800781 L 88.210938 109.898438 Z M 81.207031 80.925781 C 81.015625 80.589844 80.820312 80.78125 80.628906 80.78125 C 80.582031 80.78125 80.535156 80.875 80.484375 80.925781 Z M 81.445312 81.261719 L 81.542969 81.308594 L 81.398438 81.117188 L 80.917969 81.308594 L 81.398438 81.5 L 81.347656 81.453125 Z M 80.628906 92.148438 C 80.582031 92.246094 80.582031 92.339844 80.582031 92.4375 C 80.582031 92.484375 80.726562 92.53125 80.820312 92.582031 C 80.917969 92.628906 80.917969 92.53125 80.917969 92.53125 C 80.917969 92.53125 80.917969 92.4375 80.917969 92.4375 C 80.917969 92.4375 80.773438 92.292969 80.628906 92.148438 Z M 86.003906 77.757812 L 86.289062 77.710938 L 86.050781 77.230469 L 85.90625 77.46875 Z M 82.117188 82.84375 C 82.453125 83.035156 82.597656 82.746094 82.882812 82.601562 L 82.453125 82.554688 L 82.5 82.746094 Z M 100.824219 84.332031 C 100.824219 84.378906 100.824219 84.378906 100.777344 84.425781 L 100.15625 84.28125 C 100.15625 84.523438 100.394531 84.523438 100.539062 84.523438 C 100.683594 84.523438 100.875 84.617188 100.824219 84.332031 Z M 105.71875 89.941406 L 105.671875 89.847656 L 105.289062 89.941406 C 105.335938 89.992188 105.382812 90.132812 105.429688 90.085938 C 105.527344 90.039062 105.625 89.992188 105.71875 89.941406 Z M 108.164062 89.128906 L 108.070312 89.175781 C 108.359375 89.414062 108.023438 89.414062 107.972656 89.511719 C 108.261719 89.605469 108.359375 89.460938 108.453125 89.269531 Z M 90.175781 86.535156 C 90.417969 87.015625 90.417969 87.015625 90.703125 86.777344 Z M 91.757812 109.273438 L 92 109.515625 L 92 108.984375 L 92.046875 109.082031 Z M 89.3125 84.617188 L 88.929688 84.570312 L 88.929688 85 L 89.21875 84.714844 L 89.3125 85 L 89.410156 84.90625 Z M 93.488281 108.601562 L 93.4375 108.507812 L 92.863281 108.507812 L 92.863281 108.554688 L 93.152344 108.746094 L 93.292969 108.554688 L 93.390625 108.746094 Z M 97.5625 108.746094 L 97.324219 108.410156 L 97.035156 108.699219 Z M 89.023438 108.171875 C 89.074219 108.265625 89.121094 108.410156 89.21875 108.457031 C 89.3125 108.507812 89.410156 108.457031 89.503906 108.410156 C 89.601562 108.363281 89.503906 108.265625 89.503906 108.265625 Z M 86.289062 82.171875 L 86.53125 81.546875 C 86.289062 81.644531 86.148438 81.882812 86.242188 82.125 C 86.289062 82.125 86.289062 82.171875 86.289062 82.171875 Z M 96.988281 87.929688 L 96.941406 87.878906 L 96.890625 88.3125 L 97.226562 88.3125 Z M 98.476562 85.433594 L 98.425781 85.242188 C 98.234375 85.335938 98.042969 85.433594 97.996094 85.722656 Z M 87.011719 82.890625 L 87.347656 83.324219 L 87.539062 83.035156 Z M 89.792969 79.964844 L 89.550781 80.445312 L 89.648438 80.492188 C 89.695312 80.445312 89.695312 80.347656 89.746094 80.300781 C 89.839844 80.253906 89.9375 80.203125 90.03125 80.15625 Z M 79.191406 89.128906 L 78.902344 89.605469 L 79.429688 89.320312 Z M 105.960938 87.785156 C 105.863281 87.878906 105.863281 87.878906 105.960938 88.214844 L 106.199219 87.976562 Z M 90.992188 87.304688 L 90.464844 87.640625 L 90.464844 87.6875 L 90.800781 87.6875 L 90.945312 87.496094 Z M 87.152344 105.4375 L 87.058594 105.4375 C 87.011719 105.917969 87.058594 106.011719 87.347656 105.917969 L 87.105469 105.773438 L 87.203125 105.722656 Z M 90.753906 84.136719 L 90.65625 84.1875 L 90.992188 84.570312 L 91.136719 84.234375 L 90.945312 84.332031 Z M 87.585938 82.171875 L 87.585938 82.652344 L 87.921875 82.363281 Z M 81.109375 94.789062 L 81.683594 94.882812 L 81.492188 94.546875 Z M 87.632812 86.394531 C 87.683594 86.441406 87.730469 86.585938 87.824219 86.585938 C 87.921875 86.585938 88.015625 86.535156 88.066406 86.488281 C 88.113281 86.488281 88.113281 86.441406 88.160156 86.394531 C 88.210938 86.34375 88.066406 86.34375 88.066406 86.34375 C 88.066406 86.34375 87.824219 86.394531 87.632812 86.394531 Z M 79.957031 89.75 L 80.054688 89.796875 C 80.148438 89.703125 80.199219 89.558594 80.246094 89.460938 C 80.246094 89.414062 80.199219 89.320312 80.199219 89.222656 L 80.101562 89.222656 Z M 97.660156 87.929688 C 97.898438 87.59375 97.277344 87.785156 97.371094 87.542969 L 97.226562 87.6875 Z M 79.8125 92.101562 L 79.8125 92.4375 C 79.910156 92.339844 80.054688 92.246094 80.148438 92.148438 C 80.148438 92.101562 80.054688 92.003906 80.007812 91.910156 L 79.957031 91.910156 L 80.054688 92.101562 Z M 95.980469 105.386719 C 95.980469 105.386719 95.886719 105.292969 95.835938 105.339844 C 95.644531 105.4375 95.550781 105.628906 95.644531 105.820312 Z M 84.851562 103.039062 L 85.523438 102.894531 C 84.949219 102.847656 84.949219 102.847656 84.851562 103.039062 Z M 85.761719 107.738281 C 86.003906 107.691406 86.003906 107.691406 86.097656 108.074219 Z M 85.761719 107.738281 " fill-opacity="1" fill-rule="nonzero"/></g></svg>